<svg xmlns="http://www.w3.org/2000/svg" xmlns:xlink="http://www.w3.org/1999/xlink" width="390" zoomAndPan="magnify" viewBox="0 0 292.5 97.5" height="130" preserveAspectRatio="xMidYMid meet" version="1.0"><defs><filter x="0%" y="0%" width="100%" height="100%" id="f7b978e479"><feColorMatrix values="0 0 0 0 1 0 0 0 0 1 0 0 0 0 1 0 0 0 1 0" color-interpolation-filters="sRGB"/></filter><g/><clipPath id="efb338d661"><path d="M 15.152344 22.425781 L 96 22.425781 L 96 85.550781 L 15.152344 85.550781 Z M 15.152344 22.425781 " clip-rule="nonzero"/></clipPath><clipPath id="00e3d8ab88"><path d="M 42.023438 22.425781 L 90.203125 22.425781 C 91.933594 22.425781 93.5625 23.257812 94.574219 24.664062 C 95.585938 26.066406 95.863281 27.875 95.3125 29.515625 L 79 78.460938 C 77.585938 82.695312 73.625 85.550781 69.160156 85.550781 L 20.984375 85.550781 C 19.25 85.550781 17.625 84.71875 16.613281 83.3125 C 15.601562 81.910156 15.324219 80.105469 15.871094 78.460938 L 32.1875 29.515625 C 33.597656 25.28125 37.5625 22.425781 42.023438 22.425781 " clip-rule="nonzero"/></clipPath><mask id="856c4ab12b"><g filter="url(#f7b978e479)"><rect x="-29.25" width="351" fill="#000000" y="-9.75" height="117" fill-opacity="0.8"/></g></mask><clipPath id="c144ab33ff"><path d="M 3 0.804688 L 83.484375 0.804688 L 83.484375 63.933594 L 3 63.933594 Z M 3 0.804688 " clip-rule="nonzero"/></clipPath><clipPath id="518d1a7bfd"><path d="M 29.476562 0.804688 L 77.65625 0.804688 C 79.386719 0.804688 81.011719 1.636719 82.027344 3.042969 C 83.039062 4.449219 83.3125 6.253906 82.765625 7.894531 L 66.453125 56.839844 C 65.039062 61.074219 61.078125 63.933594 56.613281 63.933594 L 8.433594 63.933594 C 6.703125 63.933594 5.078125 63.101562 4.066406 61.695312 C 3.050781 60.289062 2.777344 58.484375 3.324219 56.839844 L 19.640625 7.894531 C 21.050781 3.660156 25.015625 0.804688 29.476562 0.804688 " clip-rule="nonzero"/></clipPath><clipPath id="08a3608261"><rect x="0" width="86" y="0" height="65"/></clipPath></defs><g clip-path="url(#efb338d661)"><g clip-path="url(#00e3d8ab88)"><path fill="#0558ee" d="M 13.507812 22.425781 L 97.675781 22.425781 L 97.675781 85.550781 L 13.507812 85.550781 Z M 13.507812 22.425781 " fill-opacity="1" fill-rule="nonzero"/></g></g><g mask="url(#856c4ab12b)"><g transform="matrix(1, 0, 0, 1, 1, 10)"><g clip-path="url(#08a3608261)"><g clip-path="url(#c144ab33ff)"><g clip-path="url(#518d1a7bfd)"><path fill="#21e8e6" d="M 0.960938 0.804688 L 85.128906 0.804688 L 85.128906 63.933594 L 0.960938 63.933594 Z M 0.960938 0.804688 " fill-opacity="1" fill-rule="nonzero"/></g></g></g></g></g><g fill="#000000" fill-opacity="1"><g transform="translate(120.304775, 39.291729)"><g><path d="M 0.125 -4.625 L 3.578125 -8.953125 C 5.273438 -7.484375 6.90625 -6.40625 8.46875 -5.71875 C 10.039062 -5.039062 11.695312 -4.703125 13.4375 -4.703125 C 15.25 -4.703125 16.691406 -5.035156 17.765625 -5.703125 C 18.847656 -6.367188 19.390625 -7.253906 19.390625 -8.359375 C 19.390625 -9.359375 19.019531 -10.132812 18.28125 -10.6875 C 17.550781 -11.25 16.328125 -11.671875 14.609375 -11.953125 L 8.828125 -12.953125 C 6.328125 -13.359375 4.429688 -14.226562 3.140625 -15.5625 C 1.847656 -16.894531 1.203125 -18.617188 1.203125 -20.734375 C 1.203125 -23.453125 2.234375 -25.597656 4.296875 -27.171875 C 6.367188 -28.753906 9.171875 -29.546875 12.703125 -29.546875 C 14.804688 -29.546875 16.929688 -29.1875 19.078125 -28.46875 C 21.234375 -27.75 23.113281 -26.75 24.71875 -25.46875 L 21.484375 -20.984375 C 19.921875 -22.171875 18.390625 -23.046875 16.890625 -23.609375 C 15.398438 -24.179688 13.863281 -24.46875 12.28125 -24.46875 C 10.664062 -24.46875 9.375 -24.171875 8.40625 -23.578125 C 7.4375 -22.984375 6.953125 -22.1875 6.953125 -21.1875 C 6.953125 -20.300781 7.269531 -19.609375 7.90625 -19.109375 C 8.539062 -18.609375 9.609375 -18.25 11.109375 -18.03125 L 16.609375 -17.109375 C 19.492188 -16.640625 21.664062 -15.71875 23.125 -14.34375 C 24.582031 -12.96875 25.3125 -11.15625 25.3125 -8.90625 C 25.3125 -6.070312 24.191406 -3.804688 21.953125 -2.109375 C 19.722656 -0.421875 16.75 0.421875 13.03125 0.421875 C 10.695312 0.421875 8.398438 -0.0195312 6.140625 -0.90625 C 3.878906 -1.800781 1.875 -3.039062 0.125 -4.625 Z M 0.125 -4.625 "/></g></g></g><g fill="#000000" fill-opacity="1"><g transform="translate(150.393325, 39.291729)"><g><path d="M 18.265625 -2.078125 L 8.203125 -21.4375 L 8.203125 0 L 2.625 0 L 2.625 -29.140625 L 10.359375 -29.140625 L 18.359375 -13.484375 L 26.34375 -29.140625 L 34.09375 -29.140625 L 34.09375 0 L 28.390625 0 L 28.390625 -21.390625 Z M 18.265625 -2.078125 "/></g></g></g><g fill="#000000" fill-opacity="1"><g transform="translate(190.885762, 39.291729)"><g><path d="M -0.171875 0 L 11.828125 -29.140625 L 18.8125 -29.140625 L 30.640625 0 L 24.09375 0 L 21.140625 -7.65625 L 9.109375 -7.65625 L 6.125 0 Z M 10.984375 -12.484375 L 19.3125 -12.484375 L 15.1875 -23.234375 Z M 10.984375 -12.484375 "/></g></g></g><g fill="#000000" fill-opacity="1"><g transform="translate(225.135877, 39.291729)"><g><path d="M 2.625 0 L 2.625 -29.140625 L 16.859375 -29.140625 C 18.328125 -29.140625 19.675781 -28.914062 20.90625 -28.46875 C 22.144531 -28.03125 23.207031 -27.414062 24.09375 -26.625 C 24.988281 -25.832031 25.6875 -24.878906 26.1875 -23.765625 C 26.6875 -22.660156 26.9375 -21.441406 26.9375 -20.109375 C 26.9375 -18.273438 26.414062 -16.632812 25.375 -15.1875 C 24.332031 -13.75 22.953125 -12.679688 21.234375 -11.984375 L 27.6875 0 L 20.9375 0 L 15.234375 -11.15625 L 8.65625 -11.15625 L 8.65625 0 Z M 16.3125 -23.9375 L 8.65625 -23.9375 L 8.65625 -16.109375 L 16.3125 -16.109375 C 17.675781 -16.109375 18.765625 -16.46875 19.578125 -17.1875 C 20.398438 -17.90625 20.8125 -18.847656 20.8125 -20.015625 C 20.8125 -21.179688 20.398438 -22.125 19.578125 -22.84375 C 18.765625 -23.570312 17.675781 -23.9375 16.3125 -23.9375 Z M 16.3125 -23.9375 "/></g></g></g><g fill="#000000" fill-opacity="1"><g transform="translate(257.180354, 39.291729)"><g><path d="M 0.75 -23.8125 L 0.75 -29.140625 L 26.390625 -29.140625 L 26.390625 -23.8125 L 16.609375 -23.8125 L 16.609375 0 L 10.578125 0 L 10.578125 -23.8125 Z M 0.75 -23.8125 "/></g></g></g><g fill="#000000" fill-opacity="1"><g transform="translate(120.304775, 84.633134)"><g><path d="M 0.703125 -26.265625 L 0.703125 -29.140625 L 24.96875 -29.140625 L 24.96875 -26.265625 L 14.4375 -26.265625 L 14.4375 0 L 11.234375 0 L 11.234375 -26.265625 Z M 0.703125 -26.265625 "/></g></g></g><g fill="#000000" fill-opacity="1"><g transform="translate(150.601518, 84.633134)"><g><path d="M 3.203125 0 L 3.203125 -29.140625 L 24.0625 -29.140625 L 24.0625 -26.3125 L 6.40625 -26.3125 L 6.40625 -16.109375 L 17.9375 -16.109375 L 17.9375 -13.3125 L 6.40625 -13.3125 L 6.40625 -2.828125 L 24.21875 -2.828125 L 24.21875 0 Z M 3.203125 0 "/></g></g></g><g fill="#000000" fill-opacity="1"><g transform="translate(180.856652, 84.633134)"><g><path d="M 17.03125 -2.5 C 18.832031 -2.5 20.550781 -2.851562 22.1875 -3.5625 C 23.820312 -4.269531 25.195312 -5.25 26.3125 -6.5 L 28.390625 -4.328125 C 26.941406 -2.828125 25.21875 -1.65625 23.21875 -0.8125 C 21.226562 0.03125 19.132812 0.453125 16.9375 0.453125 C 14.832031 0.453125 12.851562 0.0664062 11 -0.703125 C 9.15625 -1.484375 7.550781 -2.546875 6.1875 -3.890625 C 4.832031 -5.234375 3.765625 -6.828125 2.984375 -8.671875 C 2.210938 -10.523438 1.828125 -12.488281 1.828125 -14.5625 C 1.828125 -16.644531 2.210938 -18.609375 2.984375 -20.453125 C 3.765625 -22.304688 4.832031 -23.90625 6.1875 -25.25 C 7.550781 -26.59375 9.15625 -27.648438 11 -28.421875 C 12.851562 -29.203125 14.832031 -29.59375 16.9375 -29.59375 C 19.1875 -29.59375 21.316406 -29.171875 23.328125 -28.328125 C 25.335938 -27.484375 27.050781 -26.3125 28.46875 -24.8125 L 26.34375 -22.5625 C 25.207031 -23.832031 23.800781 -24.828125 22.125 -25.546875 C 20.445312 -26.273438 18.71875 -26.640625 16.9375 -26.640625 C 15.269531 -26.640625 13.707031 -26.328125 12.25 -25.703125 C 10.800781 -25.078125 9.546875 -24.226562 8.484375 -23.15625 C 7.429688 -22.09375 6.597656 -20.816406 5.984375 -19.328125 C 5.378906 -17.847656 5.078125 -16.257812 5.078125 -14.5625 C 5.078125 -12.875 5.378906 -11.285156 5.984375 -9.796875 C 6.597656 -8.316406 7.4375 -7.039062 8.5 -5.96875 C 9.570312 -4.90625 10.835938 -4.0625 12.296875 -3.4375 C 13.753906 -2.8125 15.332031 -2.5 17.03125 -2.5 Z M 17.03125 -2.5 "/></g></g></g><g fill="#000000" fill-opacity="1"><g transform="translate(215.523025, 84.633134)"><g><path d="M 3.203125 0 L 3.203125 -29.140625 L 6.40625 -29.140625 L 6.40625 -16.109375 L 23.359375 -16.109375 L 23.359375 -29.140625 L 26.5625 -29.140625 L 26.5625 0 L 23.359375 0 L 23.359375 -13.234375 L 6.40625 -13.234375 L 6.40625 0 Z M 3.203125 0 "/></g></g></g></svg>