<svg width="1200" height="675" viewBox="0 0 1200 675" fill="none" xmlns="http://www.w3.org/2000/svg">
<g clip-path="url(#clip0_1294_50937)">
<rect width="1200" height="675" fill="#DEF3F7"/>
<path d="M92.2754 290.684C89.0421 290.684 86.1819 290.021 83.6948 288.694C81.2491 287.368 79.3422 285.523 77.9743 283.16C76.6064 280.756 75.9224 277.999 75.9224 274.891V261.584C75.9224 258.517 76.6064 255.802 77.9743 253.439C79.3422 251.076 81.2491 249.252 83.6948 247.967C86.1819 246.641 89.0421 245.977 92.2754 245.977C95.5502 245.977 98.4104 246.641 100.856 247.967C103.343 249.252 105.271 251.076 106.639 253.439C108.007 255.802 108.691 258.517 108.691 261.584V274.891C108.691 277.999 108.007 280.756 106.639 283.16C105.271 285.565 103.343 287.43 100.856 288.756C98.4104 290.041 95.5502 290.684 92.2754 290.684ZM92.2754 283.16C94.5553 283.16 96.4 282.435 97.8094 280.984C99.2188 279.533 99.9234 277.606 99.9234 275.201V261.522C99.9234 259.118 99.2188 257.19 97.8094 255.739C96.4414 254.247 94.5968 253.501 92.2754 253.501C89.9956 253.501 88.1509 254.247 86.7415 255.739C85.3736 257.19 84.6896 259.118 84.6896 261.522V275.201C84.6896 277.606 85.3736 279.533 86.7415 280.984C88.1509 282.435 89.9956 283.16 92.2754 283.16ZM131.516 257.543C134.832 257.543 137.506 258.558 139.537 260.589C141.568 262.621 142.584 265.377 142.584 268.859V289.254C142.584 289.461 142.501 289.648 142.335 289.813C142.211 289.938 142.045 290 141.838 290H134.563C134.356 290 134.169 289.938 134.003 289.813C133.879 289.648 133.817 289.461 133.817 289.254V270.662C133.817 269.004 133.34 267.657 132.387 266.621C131.475 265.584 130.252 265.066 128.718 265.066C127.184 265.066 125.941 265.584 124.987 266.621C124.075 267.657 123.619 269.004 123.619 270.662V289.254C123.619 289.461 123.537 289.648 123.371 289.813C123.246 289.938 123.081 290 122.873 290H115.598C115.391 290 115.205 289.938 115.039 289.813C114.914 289.648 114.852 289.461 114.852 289.254V258.786C114.852 258.579 114.914 258.413 115.039 258.289C115.205 258.123 115.391 258.04 115.598 258.04H122.873C123.081 258.04 123.246 258.123 123.371 258.289C123.537 258.413 123.619 258.579 123.619 258.786V260.962C123.619 261.087 123.661 261.17 123.744 261.211C123.827 261.253 123.889 261.232 123.93 261.149C125.63 258.745 128.158 257.543 131.516 257.543ZM176.965 270.725C177.214 272.3 177.297 274.061 177.214 276.01C177.173 276.507 176.903 276.756 176.406 276.756H157.193C156.944 276.756 156.861 276.86 156.944 277.067C157.068 277.896 157.296 278.725 157.628 279.554C158.706 281.875 160.903 283.036 164.219 283.036C166.872 282.995 168.965 281.917 170.499 279.803C170.665 279.554 170.851 279.43 171.059 279.43C171.183 279.43 171.328 279.512 171.494 279.678L175.971 284.093C176.178 284.3 176.282 284.487 176.282 284.653C176.282 284.736 176.199 284.901 176.033 285.15C174.665 286.85 172.903 288.176 170.748 289.129C168.592 290.041 166.229 290.497 163.659 290.497C160.094 290.497 157.068 289.689 154.581 288.072C152.135 286.456 150.374 284.197 149.296 281.295C148.425 279.222 147.99 276.507 147.99 273.15C147.99 270.87 148.301 268.859 148.923 267.118C149.876 264.175 151.534 261.833 153.897 260.092C156.301 258.351 159.141 257.48 162.416 257.48C166.561 257.48 169.877 258.683 172.364 261.087C174.893 263.491 176.427 266.704 176.965 270.725ZM162.478 265.066C159.866 265.066 158.146 266.289 157.317 268.735C157.151 269.274 157.006 269.937 156.882 270.725C156.882 270.932 156.985 271.035 157.193 271.035H167.95C168.198 271.035 168.281 270.932 168.198 270.725C167.991 269.522 167.887 268.942 167.887 268.984C167.514 267.74 166.851 266.787 165.898 266.123C164.986 265.419 163.846 265.066 162.478 265.066ZM223.605 266.621C224.352 268.735 224.725 271.222 224.725 274.082C224.725 276.942 224.331 279.533 223.543 281.855C222.59 284.508 221.077 286.622 219.004 288.197C216.973 289.731 214.444 290.497 211.418 290.497C208.434 290.497 206.112 289.461 204.454 287.388C204.371 287.264 204.289 287.223 204.206 287.264C204.123 287.306 204.081 287.388 204.081 287.513V300.819C204.081 301.026 203.998 301.192 203.833 301.317C203.708 301.482 203.542 301.565 203.335 301.565H196.06C195.853 301.565 195.666 301.482 195.501 301.317C195.376 301.192 195.314 301.026 195.314 300.819V258.786C195.314 258.579 195.376 258.413 195.501 258.289C195.666 258.123 195.853 258.04 196.06 258.04H203.335C203.542 258.04 203.708 258.123 203.833 258.289C203.998 258.413 204.081 258.579 204.081 258.786V260.838C204.081 260.962 204.123 261.045 204.206 261.087C204.289 261.087 204.371 261.045 204.454 260.962C206.195 258.683 208.6 257.543 211.667 257.543C214.527 257.543 216.994 258.351 219.066 259.968C221.18 261.543 222.694 263.761 223.605 266.621ZM214.092 280.549C215.128 278.932 215.647 276.735 215.647 273.958C215.647 271.346 215.211 269.274 214.341 267.74C213.387 265.958 211.854 265.066 209.74 265.066C207.833 265.066 206.403 265.958 205.449 267.74C204.579 269.232 204.143 271.326 204.143 274.02C204.143 276.797 204.599 278.953 205.511 280.487C206.465 282.145 207.874 282.974 209.74 282.974C211.605 282.974 213.056 282.165 214.092 280.549ZM231.151 290C230.944 290 230.758 289.938 230.592 289.813C230.467 289.648 230.405 289.461 230.405 289.254V247.221C230.405 247.014 230.467 246.848 230.592 246.724C230.758 246.558 230.944 246.475 231.151 246.475H238.426C238.634 246.475 238.799 246.558 238.924 246.724C239.09 246.848 239.173 247.014 239.173 247.221V289.254C239.173 289.461 239.09 289.648 238.924 289.813C238.799 289.938 238.634 290 238.426 290H231.151ZM258.332 257.543C261.027 257.543 263.431 258.019 265.545 258.973C267.659 259.885 269.297 261.149 270.457 262.766C271.659 264.382 272.26 266.185 272.26 268.175V289.254C272.26 289.461 272.178 289.648 272.012 289.813C271.887 289.938 271.722 290 271.514 290H264.239C264.032 290 263.846 289.938 263.68 289.813C263.555 289.648 263.493 289.461 263.493 289.254V287.202C263.493 287.078 263.452 286.995 263.369 286.953C263.286 286.912 263.203 286.953 263.12 287.078C261.379 289.357 258.581 290.497 254.726 290.497C251.493 290.497 248.881 289.71 246.891 288.135C244.902 286.559 243.907 284.238 243.907 281.171C243.907 277.979 245.026 275.512 247.265 273.771C249.503 271.989 252.695 271.098 256.84 271.098H263.182C263.39 271.098 263.493 270.994 263.493 270.787V269.419C263.493 268.051 263.079 266.994 262.25 266.248C261.421 265.46 260.177 265.066 258.519 265.066C257.234 265.066 256.156 265.294 255.286 265.75C254.457 266.206 253.918 266.849 253.669 267.678C253.545 268.134 253.275 268.341 252.861 268.3L245.337 267.305C244.84 267.222 244.612 267.035 244.653 266.745C244.819 265.004 245.503 263.429 246.705 262.02C247.948 260.61 249.565 259.512 251.555 258.724C253.586 257.936 255.845 257.543 258.332 257.543ZM257.089 283.969C258.871 283.969 260.384 283.492 261.628 282.539C262.871 281.585 263.493 280.362 263.493 278.87V276.632C263.493 276.424 263.39 276.321 263.182 276.321H258.705C256.84 276.321 255.368 276.673 254.291 277.378C253.254 278.082 252.736 279.077 252.736 280.362C252.736 281.481 253.13 282.373 253.918 283.036C254.705 283.658 255.762 283.969 257.089 283.969ZM296.111 264.32C296.111 264.527 296.028 264.714 295.862 264.88C295.738 265.004 295.572 265.066 295.365 265.066H289.396C289.188 265.066 289.085 265.17 289.085 265.377V278.559C289.085 279.927 289.354 280.943 289.893 281.606C290.473 282.269 291.385 282.601 292.629 282.601H294.681C294.888 282.601 295.054 282.684 295.178 282.849C295.344 282.974 295.427 283.14 295.427 283.347V289.254C295.427 289.71 295.178 289.979 294.681 290.062C292.94 290.145 291.696 290.187 290.95 290.187C287.509 290.187 284.939 289.627 283.24 288.508C281.54 287.347 280.67 285.192 280.628 282.041V265.377C280.628 265.17 280.525 265.066 280.317 265.066H276.773C276.566 265.066 276.379 265.004 276.214 264.88C276.089 264.714 276.027 264.527 276.027 264.32V258.786C276.027 258.579 276.089 258.413 276.214 258.289C276.379 258.123 276.566 258.04 276.773 258.04H280.317C280.525 258.04 280.628 257.936 280.628 257.729V250.33C280.628 250.123 280.691 249.957 280.815 249.832C280.981 249.667 281.167 249.584 281.374 249.584H288.339C288.546 249.584 288.712 249.667 288.836 249.832C289.002 249.957 289.085 250.123 289.085 250.33V257.729C289.085 257.936 289.188 258.04 289.396 258.04H295.365C295.572 258.04 295.738 258.123 295.862 258.289C296.028 258.413 296.111 258.579 296.111 258.786V264.32ZM319.607 257.978C319.814 257.978 319.98 258.061 320.105 258.227C320.27 258.351 320.353 258.517 320.353 258.724V264.631C320.353 264.838 320.27 265.025 320.105 265.191C319.98 265.315 319.814 265.377 319.607 265.377H313.576C313.369 265.377 313.265 265.481 313.265 265.688V289.254C313.265 289.461 313.182 289.648 313.016 289.813C312.892 289.938 312.726 290 312.519 290H305.244C305.037 290 304.85 289.938 304.684 289.813C304.56 289.648 304.498 289.461 304.498 289.254V265.688C304.498 265.481 304.394 265.377 304.187 265.377H300.518C300.311 265.377 300.124 265.315 299.959 265.191C299.834 265.025 299.772 264.838 299.772 264.631V258.724C299.772 258.517 299.834 258.351 299.959 258.227C300.124 258.061 300.311 257.978 300.518 257.978H304.187C304.394 257.978 304.498 257.874 304.498 257.667V256.299C304.498 253.729 304.892 251.739 305.679 250.33C306.467 248.879 307.731 247.863 309.472 247.283C311.255 246.661 313.7 246.392 316.809 246.475H319.172C319.379 246.475 319.545 246.558 319.669 246.724C319.835 246.848 319.918 247.014 319.918 247.221V252.257C319.918 252.465 319.835 252.651 319.669 252.817C319.545 252.941 319.379 253.004 319.172 253.004H317.12C315.669 253.045 314.654 253.356 314.073 253.936C313.534 254.475 313.265 255.491 313.265 256.983V257.667C313.265 257.874 313.369 257.978 313.576 257.978H319.607ZM337.606 290.497C334.124 290.497 331.139 289.585 328.652 287.762C326.165 285.938 324.466 283.45 323.554 280.3C322.973 278.352 322.683 276.238 322.683 273.958C322.683 271.512 322.973 269.315 323.554 267.367C324.507 264.299 326.227 261.895 328.714 260.154C331.202 258.413 334.186 257.543 337.668 257.543C341.067 257.543 343.969 258.413 346.373 260.154C348.778 261.854 350.477 264.237 351.472 267.305C352.135 269.377 352.467 271.554 352.467 273.833C352.467 276.072 352.177 278.165 351.596 280.114C350.684 283.347 348.985 285.896 346.498 287.762C344.052 289.585 341.088 290.497 337.606 290.497ZM337.606 282.974C338.974 282.974 340.135 282.559 341.088 281.73C342.041 280.901 342.725 279.761 343.14 278.31C343.472 276.984 343.637 275.533 343.637 273.958C343.637 272.217 343.472 270.745 343.14 269.543C342.684 268.134 341.979 267.035 341.026 266.248C340.072 265.46 338.912 265.066 337.544 265.066C336.134 265.066 334.953 265.46 334 266.248C333.088 267.035 332.424 268.134 332.01 269.543C331.678 270.538 331.513 272.01 331.513 273.958C331.513 275.823 331.658 277.274 331.948 278.31C332.362 279.761 333.046 280.901 334 281.73C334.995 282.559 336.197 282.974 337.606 282.974ZM374.021 257.605C375.513 257.605 376.694 257.895 377.565 258.475C377.896 258.641 378.021 258.952 377.938 259.408L376.632 266.496C376.591 266.994 376.3 267.139 375.762 266.932C375.14 266.724 374.414 266.621 373.585 266.621C373.254 266.621 372.798 266.662 372.217 266.745C370.725 266.869 369.461 267.429 368.424 268.424C367.388 269.377 366.87 270.662 366.87 272.279V289.254C366.87 289.461 366.787 289.648 366.621 289.813C366.497 289.938 366.331 290 366.124 290H358.849C358.642 290 358.455 289.938 358.289 289.813C358.165 289.648 358.103 289.461 358.103 289.254V258.786C358.103 258.579 358.165 258.413 358.289 258.289C358.455 258.123 358.642 258.04 358.849 258.04H366.124C366.331 258.04 366.497 258.123 366.621 258.289C366.787 258.413 366.87 258.579 366.87 258.786V261.149C366.87 261.273 366.911 261.356 366.994 261.398C367.077 261.439 367.139 261.418 367.181 261.336C368.88 258.848 371.16 257.605 374.021 257.605ZM417.348 257.543C420.581 257.543 423.109 258.517 424.933 260.465C426.757 262.413 427.669 265.149 427.669 268.673V289.254C427.669 289.461 427.586 289.648 427.421 289.813C427.296 289.938 427.13 290 426.923 290H419.648C419.441 290 419.254 289.938 419.089 289.813C418.964 289.648 418.902 289.461 418.902 289.254V270.6C418.902 268.901 418.467 267.553 417.596 266.559C416.726 265.564 415.565 265.066 414.114 265.066C412.663 265.066 411.482 265.564 410.57 266.559C409.658 267.553 409.202 268.88 409.202 270.538V289.254C409.202 289.461 409.119 289.648 408.953 289.813C408.829 289.938 408.663 290 408.456 290H401.243C401.036 290 400.849 289.938 400.684 289.813C400.559 289.648 400.497 289.461 400.497 289.254V270.6C400.497 268.942 400.041 267.616 399.129 266.621C398.217 265.584 397.036 265.066 395.585 265.066C394.258 265.066 393.139 265.46 392.227 266.248C391.357 267.035 390.839 268.134 390.673 269.543V289.254C390.673 289.461 390.59 289.648 390.424 289.813C390.3 289.938 390.134 290 389.927 290H382.652C382.444 290 382.258 289.938 382.092 289.813C381.968 289.648 381.906 289.461 381.906 289.254V258.786C381.906 258.579 381.968 258.413 382.092 258.289C382.258 258.123 382.444 258.04 382.652 258.04H389.927C390.134 258.04 390.3 258.123 390.424 258.289C390.59 258.413 390.673 258.579 390.673 258.786V261.211C390.673 261.336 390.714 261.418 390.797 261.46C390.88 261.501 390.963 261.46 391.046 261.336C392.745 258.807 395.378 257.543 398.943 257.543C401.015 257.543 402.818 257.978 404.352 258.848C405.927 259.719 407.129 260.962 407.959 262.579C408.083 262.828 408.228 262.828 408.394 262.579C409.306 260.88 410.529 259.615 412.062 258.786C413.638 257.957 415.399 257.543 417.348 257.543ZM464.489 257.978C464.696 257.978 464.862 258.061 464.986 258.227C465.152 258.351 465.235 258.517 465.235 258.724V264.631C465.235 264.838 465.152 265.025 464.986 265.191C464.862 265.315 464.696 265.377 464.489 265.377H458.457C458.25 265.377 458.147 265.481 458.147 265.688V289.254C458.147 289.461 458.064 289.648 457.898 289.813C457.774 289.938 457.608 290 457.4 290H450.126C449.918 290 449.732 289.938 449.566 289.813C449.442 289.648 449.379 289.461 449.379 289.254V265.688C449.379 265.481 449.276 265.377 449.068 265.377H445.4C445.193 265.377 445.006 265.315 444.84 265.191C444.716 265.025 444.654 264.838 444.654 264.631V258.724C444.654 258.517 444.716 258.351 444.84 258.227C445.006 258.061 445.193 257.978 445.4 257.978H449.068C449.276 257.978 449.379 257.874 449.379 257.667V256.299C449.379 253.729 449.773 251.739 450.561 250.33C451.348 248.879 452.613 247.863 454.354 247.283C456.136 246.661 458.582 246.392 461.691 246.475H464.054C464.261 246.475 464.427 246.558 464.551 246.724C464.717 246.848 464.8 247.014 464.8 247.221V252.257C464.8 252.465 464.717 252.651 464.551 252.817C464.427 252.941 464.261 253.004 464.054 253.004H462.002C460.551 253.045 459.535 253.356 458.955 253.936C458.416 254.475 458.147 255.491 458.147 256.983V257.667C458.147 257.874 458.25 257.978 458.457 257.978H464.489ZM482.488 290.497C479.006 290.497 476.021 289.585 473.534 287.762C471.047 285.938 469.347 283.45 468.435 280.3C467.855 278.352 467.565 276.238 467.565 273.958C467.565 271.512 467.855 269.315 468.435 267.367C469.389 264.299 471.109 261.895 473.596 260.154C476.083 258.413 479.068 257.543 482.55 257.543C485.949 257.543 488.851 258.413 491.255 260.154C493.659 261.854 495.359 264.237 496.354 267.305C497.017 269.377 497.348 271.554 497.348 273.833C497.348 276.072 497.058 278.165 496.478 280.114C495.566 283.347 493.866 285.896 491.379 287.762C488.934 289.585 485.97 290.497 482.488 290.497ZM482.488 282.974C483.856 282.974 485.016 282.559 485.97 281.73C486.923 280.901 487.607 279.761 488.022 278.31C488.353 276.984 488.519 275.533 488.519 273.958C488.519 272.217 488.353 270.745 488.022 269.543C487.566 268.134 486.861 267.035 485.907 266.248C484.954 265.46 483.793 265.066 482.425 265.066C481.016 265.066 479.835 265.46 478.881 266.248C477.969 267.035 477.306 268.134 476.892 269.543C476.56 270.538 476.394 272.01 476.394 273.958C476.394 275.823 476.539 277.274 476.829 278.31C477.244 279.761 477.928 280.901 478.881 281.73C479.876 282.559 481.078 282.974 482.488 282.974ZM518.902 257.605C520.394 257.605 521.576 257.895 522.446 258.475C522.778 258.641 522.902 258.952 522.819 259.408L521.514 266.496C521.472 266.994 521.182 267.139 520.643 266.932C520.021 266.724 519.296 266.621 518.467 266.621C518.135 266.621 517.679 266.662 517.099 266.745C515.607 266.869 514.342 267.429 513.306 268.424C512.27 269.377 511.752 270.662 511.752 272.279V289.254C511.752 289.461 511.669 289.648 511.503 289.813C511.378 289.938 511.213 290 511.005 290H503.73C503.523 290 503.337 289.938 503.171 289.813C503.047 289.648 502.984 289.461 502.984 289.254V258.786C502.984 258.579 503.047 258.413 503.171 258.289C503.337 258.123 503.523 258.04 503.73 258.04H511.005C511.213 258.04 511.378 258.123 511.503 258.289C511.669 258.413 511.752 258.579 511.752 258.786V261.149C511.752 261.273 511.793 261.356 511.876 261.398C511.959 261.439 512.021 261.418 512.062 261.336C513.762 258.848 516.042 257.605 518.902 257.605ZM88.98 337.543C91.6744 337.543 94.0786 338.019 96.1927 338.973C98.3068 339.885 99.9442 341.149 101.105 342.766C102.307 344.382 102.908 346.185 102.908 348.175V369.254C102.908 369.461 102.825 369.648 102.659 369.813C102.535 369.938 102.369 370 102.162 370H94.887C94.6797 370 94.4932 369.938 94.3274 369.813C94.203 369.648 94.1408 369.461 94.1408 369.254V367.202C94.1408 367.078 94.0994 366.995 94.0165 366.953C93.9336 366.912 93.8506 366.953 93.7677 367.078C92.0267 369.357 89.2287 370.497 85.3736 370.497C82.1403 370.497 79.5288 369.71 77.5391 368.135C75.5493 366.559 74.5545 364.238 74.5545 361.171C74.5545 357.979 75.6737 355.512 77.9121 353.771C80.1506 351.989 83.3424 351.098 87.4877 351.098H93.8299C94.0372 351.098 94.1408 350.994 94.1408 350.787V349.419C94.1408 348.051 93.7263 346.994 92.8972 346.248C92.0682 345.46 90.8246 345.066 89.1665 345.066C87.8815 345.066 86.8037 345.294 85.9332 345.75C85.1042 346.206 84.5653 346.849 84.3166 347.678C84.1922 348.134 83.9228 348.341 83.5082 348.3L75.9846 347.305C75.4872 347.222 75.2592 347.035 75.3006 346.745C75.4664 345.004 76.1504 343.429 77.3525 342.02C78.5961 340.61 80.2127 339.512 82.2025 338.724C84.2336 337.936 86.4928 337.543 88.98 337.543ZM87.7364 363.969C89.5189 363.969 91.0319 363.492 92.2754 362.539C93.519 361.585 94.1408 360.362 94.1408 358.87V356.632C94.1408 356.424 94.0372 356.321 93.8299 356.321H89.353C87.4877 356.321 86.0161 356.673 84.9383 357.378C83.902 358.082 83.3839 359.077 83.3839 360.362C83.3839 361.481 83.7777 362.373 84.5653 363.036C85.3529 363.658 86.4099 363.969 87.7364 363.969ZM109.83 370C109.623 370 109.436 369.938 109.27 369.813C109.146 369.648 109.084 369.461 109.084 369.254V327.221C109.084 327.014 109.146 326.848 109.27 326.724C109.436 326.558 109.623 326.475 109.83 326.475H117.105C117.312 326.475 117.478 326.558 117.602 326.724C117.768 326.848 117.851 327.014 117.851 327.221V369.254C117.851 369.461 117.768 369.648 117.602 369.813C117.478 369.938 117.312 370 117.105 370H109.83ZM125.01 370C124.803 370 124.616 369.938 124.451 369.813C124.326 369.648 124.264 369.461 124.264 369.254V327.221C124.264 327.014 124.326 326.848 124.451 326.724C124.616 326.558 124.803 326.475 125.01 326.475H132.285C132.492 326.475 132.658 326.558 132.783 326.724C132.948 326.848 133.031 327.014 133.031 327.221V369.254C133.031 369.461 132.948 369.648 132.783 369.813C132.658 369.938 132.492 370 132.285 370H125.01ZM171.727 327.221C171.727 327.014 171.79 326.848 171.914 326.724C172.08 326.558 172.266 326.475 172.474 326.475H179.748C179.956 326.475 180.122 326.558 180.246 326.724C180.412 326.848 180.495 327.014 180.495 327.221V369.254C180.495 369.461 180.412 369.648 180.246 369.813C180.122 369.938 179.956 370 179.748 370H172.474C172.266 370 172.08 369.938 171.914 369.813C171.79 369.648 171.727 369.461 171.727 369.254V367.202C171.727 367.078 171.686 367.015 171.603 367.015C171.52 366.974 171.437 366.995 171.354 367.078C169.613 369.357 167.23 370.497 164.204 370.497C161.302 370.497 158.794 369.689 156.68 368.072C154.607 366.456 153.115 364.238 152.203 361.419C151.499 359.264 151.146 356.756 151.146 353.896C151.146 350.953 151.519 348.382 152.265 346.185C153.219 343.533 154.711 341.439 156.742 339.905C158.815 338.33 161.364 337.543 164.39 337.543C167.375 337.543 169.696 338.579 171.354 340.652C171.437 340.776 171.52 340.817 171.603 340.776C171.686 340.734 171.727 340.652 171.727 340.527V327.221ZM170.422 360.3C171.251 358.766 171.665 356.673 171.665 354.02C171.665 351.243 171.209 349.066 170.297 347.491C169.344 345.875 167.955 345.066 166.131 345.066C164.183 345.066 162.711 345.875 161.717 347.491C160.68 349.108 160.162 351.305 160.162 354.082C160.162 356.569 160.597 358.642 161.468 360.3C162.504 362.083 164.038 362.974 166.069 362.974C167.934 362.974 169.385 362.083 170.422 360.3ZM201.225 370.497C197.743 370.497 194.759 369.585 192.272 367.762C189.785 365.938 188.085 363.45 187.173 360.3C186.593 358.352 186.303 356.238 186.303 353.958C186.303 351.512 186.593 349.315 187.173 347.367C188.126 344.299 189.847 341.895 192.334 340.154C194.821 338.413 197.806 337.543 201.288 337.543C204.687 337.543 207.588 338.413 209.993 340.154C212.397 341.854 214.096 344.237 215.091 347.305C215.755 349.377 216.086 351.554 216.086 353.833C216.086 356.072 215.796 358.165 215.216 360.114C214.304 363.347 212.604 365.896 210.117 367.762C207.671 369.585 204.707 370.497 201.225 370.497ZM201.225 362.974C202.593 362.974 203.754 362.559 204.707 361.73C205.661 360.901 206.345 359.761 206.759 358.31C207.091 356.984 207.257 355.533 207.257 353.958C207.257 352.217 207.091 350.745 206.759 349.543C206.303 348.134 205.599 347.035 204.645 346.248C203.692 345.46 202.531 345.066 201.163 345.066C199.754 345.066 198.572 345.46 197.619 346.248C196.707 347.035 196.044 348.134 195.629 349.543C195.298 350.538 195.132 352.01 195.132 353.958C195.132 355.823 195.277 357.274 195.567 358.31C195.982 359.761 196.666 360.901 197.619 361.73C198.614 362.559 199.816 362.974 201.225 362.974ZM235.775 370.497C232.458 370.497 229.577 369.668 227.132 368.01C224.727 366.352 223.007 364.072 221.971 361.171C221.266 359.098 220.914 356.652 220.914 353.833C220.914 351.056 221.266 348.652 221.971 346.621C222.966 343.802 224.686 341.584 227.132 339.968C229.577 338.351 232.458 337.543 235.775 337.543C239.091 337.543 241.992 338.372 244.48 340.03C247.008 341.688 248.687 343.781 249.516 346.31C249.848 347.305 250.014 348.051 250.014 348.548V348.673C250.014 349.046 249.806 349.274 249.392 349.357L242.241 350.414H242.117C241.744 350.414 241.495 350.206 241.371 349.792L241.184 348.797C240.894 347.719 240.251 346.828 239.257 346.123C238.262 345.419 237.08 345.066 235.712 345.066C234.386 345.066 233.267 345.398 232.355 346.061C231.443 346.724 230.8 347.636 230.427 348.797C229.971 350.041 229.743 351.74 229.743 353.896C229.743 356.051 229.95 357.751 230.365 358.994C230.738 360.238 231.381 361.212 232.293 361.917C233.246 362.621 234.386 362.974 235.712 362.974C236.997 362.974 238.117 362.642 239.07 361.979C240.065 361.274 240.749 360.321 241.122 359.119C241.163 359.036 241.184 358.911 241.184 358.746C241.226 358.704 241.246 358.642 241.246 358.559C241.288 358.062 241.578 357.854 242.117 357.937L249.267 359.057C249.682 359.139 249.889 359.367 249.889 359.74C249.889 360.072 249.765 360.694 249.516 361.606C248.646 364.383 246.946 366.559 244.417 368.135C241.93 369.71 239.049 370.497 235.775 370.497ZM273.773 338.786C273.773 338.579 273.835 338.413 273.959 338.289C274.125 338.123 274.312 338.04 274.519 338.04H281.794C282.001 338.04 282.167 338.123 282.291 338.289C282.457 338.413 282.54 338.579 282.54 338.786V369.254C282.54 369.461 282.457 369.648 282.291 369.813C282.167 369.938 282.001 370 281.794 370H274.519C274.312 370 274.125 369.938 273.959 369.813C273.835 369.648 273.773 369.461 273.773 369.254V367.14C273.773 367.015 273.731 366.953 273.648 366.953C273.565 366.912 273.482 366.953 273.4 367.078C271.741 369.316 269.171 370.435 265.689 370.435C262.539 370.435 259.948 369.482 257.917 367.575C255.886 365.668 254.87 362.995 254.87 359.554V338.786C254.87 338.579 254.932 338.413 255.057 338.289C255.223 338.123 255.409 338.04 255.616 338.04H262.829C263.036 338.04 263.202 338.123 263.327 338.289C263.492 338.413 263.575 338.579 263.575 338.786V357.378C263.575 359.036 264.011 360.383 264.881 361.419C265.793 362.456 267.037 362.974 268.612 362.974C270.021 362.974 271.182 362.559 272.094 361.73C273.006 360.86 273.565 359.74 273.773 358.373V338.786ZM324.444 337.543C327.677 337.543 330.205 338.517 332.029 340.465C333.853 342.413 334.765 345.149 334.765 348.673V369.254C334.765 369.461 334.682 369.648 334.517 369.813C334.392 369.938 334.226 370 334.019 370H326.744C326.537 370 326.35 369.938 326.185 369.813C326.06 369.648 325.998 369.461 325.998 369.254V350.6C325.998 348.901 325.563 347.553 324.692 346.559C323.822 345.564 322.661 345.066 321.21 345.066C319.759 345.066 318.578 345.564 317.666 346.559C316.754 347.553 316.298 348.88 316.298 350.538V369.254C316.298 369.461 316.215 369.648 316.049 369.813C315.925 369.938 315.759 370 315.552 370H308.339C308.132 370 307.945 369.938 307.78 369.813C307.655 369.648 307.593 369.461 307.593 369.254V350.6C307.593 348.942 307.137 347.616 306.225 346.621C305.313 345.584 304.132 345.066 302.681 345.066C301.354 345.066 300.235 345.46 299.323 346.248C298.453 347.035 297.935 348.134 297.769 349.543V369.254C297.769 369.461 297.686 369.648 297.52 369.813C297.396 369.938 297.23 370 297.023 370H289.748C289.54 370 289.354 369.938 289.188 369.813C289.064 369.648 289.002 369.461 289.002 369.254V338.786C289.002 338.579 289.064 338.413 289.188 338.289C289.354 338.123 289.54 338.04 289.748 338.04H297.023C297.23 338.04 297.396 338.123 297.52 338.289C297.686 338.413 297.769 338.579 297.769 338.786V341.211C297.769 341.336 297.81 341.418 297.893 341.46C297.976 341.501 298.059 341.46 298.142 341.336C299.841 338.807 302.474 337.543 306.039 337.543C308.111 337.543 309.914 337.978 311.448 338.848C313.023 339.719 314.225 340.962 315.055 342.579C315.179 342.828 315.324 342.828 315.49 342.579C316.402 340.88 317.625 339.615 319.158 338.786C320.734 337.957 322.495 337.543 324.444 337.543ZM369.028 350.725C369.276 352.3 369.359 354.061 369.276 356.01C369.235 356.507 368.966 356.756 368.468 356.756H349.255C349.006 356.756 348.923 356.86 349.006 357.067C349.13 357.896 349.358 358.725 349.69 359.554C350.768 361.875 352.965 363.036 356.281 363.036C358.934 362.995 361.027 361.917 362.561 359.803C362.727 359.554 362.913 359.43 363.121 359.43C363.245 359.43 363.39 359.512 363.556 359.678L368.033 364.093C368.24 364.3 368.344 364.487 368.344 364.653C368.344 364.736 368.261 364.901 368.095 365.15C366.727 366.85 364.965 368.176 362.81 369.129C360.654 370.041 358.292 370.497 355.721 370.497C352.157 370.497 349.13 369.689 346.643 368.072C344.198 366.456 342.436 364.197 341.358 361.295C340.488 359.222 340.052 356.507 340.052 353.15C340.052 350.87 340.363 348.859 340.985 347.118C341.938 344.175 343.597 341.833 345.959 340.092C348.364 338.351 351.203 337.48 354.478 337.48C358.623 337.48 361.939 338.683 364.427 341.087C366.955 343.491 368.489 346.704 369.028 350.725ZM354.54 345.066C351.929 345.066 350.208 346.289 349.379 348.735C349.213 349.274 349.068 349.937 348.944 350.725C348.944 350.932 349.048 351.035 349.255 351.035H360.012C360.261 351.035 360.343 350.932 360.261 350.725C360.053 349.522 359.95 348.942 359.95 348.984C359.577 347.74 358.913 346.787 357.96 346.123C357.048 345.419 355.908 345.066 354.54 345.066ZM391.344 337.543C394.66 337.543 397.334 338.558 399.365 340.589C401.396 342.621 402.411 345.377 402.411 348.859V369.254C402.411 369.461 402.329 369.648 402.163 369.813C402.038 369.938 401.873 370 401.665 370H394.39C394.183 370 393.997 369.938 393.831 369.813C393.706 369.648 393.644 369.461 393.644 369.254V350.662C393.644 349.004 393.168 347.657 392.214 346.621C391.302 345.584 390.079 345.066 388.546 345.066C387.012 345.066 385.768 345.584 384.815 346.621C383.903 347.657 383.447 349.004 383.447 350.662V369.254C383.447 369.461 383.364 369.648 383.198 369.813C383.074 369.938 382.908 370 382.701 370H375.426C375.219 370 375.032 369.938 374.866 369.813C374.742 369.648 374.68 369.461 374.68 369.254V338.786C374.68 338.579 374.742 338.413 374.866 338.289C375.032 338.123 375.219 338.04 375.426 338.04H382.701C382.908 338.04 383.074 338.123 383.198 338.289C383.364 338.413 383.447 338.579 383.447 338.786V340.962C383.447 341.087 383.488 341.17 383.571 341.211C383.654 341.253 383.716 341.232 383.758 341.149C385.457 338.745 387.986 337.543 391.344 337.543ZM427.027 344.32C427.027 344.527 426.944 344.714 426.778 344.88C426.653 345.004 426.488 345.066 426.28 345.066H420.311C420.104 345.066 420 345.17 420 345.377V358.559C420 359.927 420.27 360.943 420.809 361.606C421.389 362.269 422.301 362.601 423.545 362.601H425.596C425.804 362.601 425.969 362.684 426.094 362.849C426.26 362.974 426.343 363.14 426.343 363.347V369.254C426.343 369.71 426.094 369.979 425.596 370.062C423.855 370.145 422.612 370.187 421.866 370.187C418.425 370.187 415.855 369.627 414.156 368.508C412.456 367.347 411.585 365.192 411.544 362.041V345.377C411.544 345.17 411.44 345.066 411.233 345.066H407.689C407.482 345.066 407.295 345.004 407.129 344.88C407.005 344.714 406.943 344.527 406.943 344.32V338.786C406.943 338.579 407.005 338.413 407.129 338.289C407.295 338.123 407.482 338.04 407.689 338.04H411.233C411.44 338.04 411.544 337.936 411.544 337.729V330.33C411.544 330.123 411.606 329.957 411.731 329.832C411.896 329.667 412.083 329.584 412.29 329.584H419.254C419.461 329.584 419.627 329.667 419.752 329.832C419.917 329.957 420 330.123 420 330.33V337.729C420 337.936 420.104 338.04 420.311 338.04H426.28C426.488 338.04 426.653 338.123 426.778 338.289C426.944 338.413 427.027 338.579 427.027 338.786V344.32ZM84.1922 450C83.7362 450 83.446 449.793 83.3217 449.378L74.3679 418.848L74.3058 418.6C74.3058 418.185 74.5337 417.978 74.9897 417.978H82.5134C82.9693 417.978 83.2595 418.185 83.3839 418.6L87.8607 437.378C87.9022 437.502 87.9644 437.564 88.0473 437.564C88.1302 437.564 88.1924 437.502 88.2338 437.378L92.8972 418.6C93.0216 418.185 93.3118 417.978 93.7677 417.978H100.297C100.753 417.978 101.043 418.185 101.167 418.6L106.079 437.44C106.121 437.564 106.183 437.626 106.266 437.626C106.349 437.626 106.411 437.564 106.452 437.44L111.302 418.6C111.427 418.185 111.717 417.978 112.173 417.978L119.634 418.102C119.883 418.102 120.049 418.185 120.132 418.351C120.256 418.475 120.297 418.662 120.256 418.911L111.178 449.378C111.053 449.793 110.784 450 110.369 450H102.846C102.39 450 102.1 449.793 101.975 449.378L97.1876 432.714C97.1461 432.59 97.0839 432.528 97.001 432.528C96.9181 432.528 96.856 432.59 96.8145 432.714L92.5863 449.378C92.462 449.793 92.1718 450 91.7158 450H84.1922ZM136.982 450.497C133.5 450.497 130.515 449.585 128.028 447.762C125.541 445.938 123.842 443.45 122.93 440.3C122.349 438.352 122.059 436.238 122.059 433.958C122.059 431.512 122.349 429.315 122.93 427.367C123.883 424.299 125.603 421.895 128.09 420.154C130.578 418.413 133.562 417.543 137.044 417.543C140.443 417.543 143.345 418.413 145.749 420.154C148.154 421.854 149.853 424.237 150.848 427.305C151.511 429.377 151.843 431.554 151.843 433.833C151.843 436.072 151.553 438.165 150.972 440.114C150.06 443.347 148.361 445.896 145.874 447.762C143.428 449.585 140.464 450.497 136.982 450.497ZM136.982 442.974C138.35 442.974 139.511 442.559 140.464 441.73C141.417 440.901 142.101 439.761 142.516 438.31C142.848 436.984 143.013 435.533 143.013 433.958C143.013 432.217 142.848 430.745 142.516 429.543C142.06 428.134 141.355 427.035 140.402 426.248C139.448 425.46 138.288 425.066 136.92 425.066C135.51 425.066 134.329 425.46 133.376 426.248C132.464 427.035 131.8 428.134 131.386 429.543C131.054 430.538 130.889 432.01 130.889 433.958C130.889 435.823 131.034 437.274 131.324 438.31C131.738 439.761 132.422 440.901 133.376 441.73C134.371 442.559 135.573 442.974 136.982 442.974ZM173.397 417.605C174.889 417.605 176.07 417.895 176.941 418.475C177.272 418.641 177.397 418.952 177.314 419.408L176.008 426.496C175.967 426.994 175.676 427.139 175.138 426.932C174.516 426.724 173.79 426.621 172.961 426.621C172.63 426.621 172.174 426.662 171.593 426.745C170.101 426.869 168.837 427.429 167.8 428.424C166.764 429.377 166.246 430.662 166.246 432.279V449.254C166.246 449.461 166.163 449.648 165.997 449.813C165.873 449.938 165.707 450 165.5 450H158.225C158.018 450 157.831 449.938 157.665 449.813C157.541 449.648 157.479 449.461 157.479 449.254V418.786C157.479 418.579 157.541 418.413 157.665 418.289C157.831 418.123 158.018 418.04 158.225 418.04H165.5C165.707 418.04 165.873 418.123 165.997 418.289C166.163 418.413 166.246 418.579 166.246 418.786V421.149C166.246 421.273 166.287 421.356 166.37 421.398C166.453 421.439 166.515 421.418 166.557 421.336C168.256 418.848 170.536 417.605 173.397 417.605ZM182.028 450C181.82 450 181.634 449.938 181.468 449.813C181.344 449.648 181.282 449.461 181.282 449.254V407.221C181.282 407.014 181.344 406.848 181.468 406.724C181.634 406.558 181.82 406.475 182.028 406.475H189.303C189.51 406.475 189.676 406.558 189.8 406.724C189.966 406.848 190.049 407.014 190.049 407.221V428.175C190.049 428.3 190.09 428.382 190.173 428.424C190.256 428.424 190.339 428.382 190.422 428.3L198.878 418.475C199.168 418.185 199.479 418.04 199.811 418.04H208.081C208.495 418.04 208.702 418.185 208.702 418.475C208.702 418.6 208.64 418.765 208.516 418.973L200.619 428.984C200.536 429.149 200.516 429.294 200.557 429.419L209.822 449.129C209.905 449.295 209.946 449.42 209.946 449.503C209.946 449.834 209.718 450 209.262 450H201.614C201.2 450 200.909 449.813 200.744 449.44L194.588 434.891C194.546 434.808 194.463 434.766 194.339 434.766C194.256 434.725 194.194 434.745 194.153 434.828L190.173 439.803C190.09 439.968 190.049 440.093 190.049 440.176V449.254C190.049 449.461 189.966 449.648 189.8 449.813C189.676 449.938 189.51 450 189.303 450H182.028ZM232.654 417.978C232.861 417.978 233.027 418.061 233.151 418.227C233.317 418.351 233.4 418.517 233.4 418.724V424.631C233.4 424.838 233.317 425.025 233.151 425.191C233.027 425.315 232.861 425.377 232.654 425.377H226.623C226.415 425.377 226.312 425.481 226.312 425.688V449.254C226.312 449.461 226.229 449.648 226.063 449.813C225.939 449.938 225.773 450 225.566 450H218.291C218.083 450 217.897 449.938 217.731 449.813C217.607 449.648 217.544 449.461 217.544 449.254V425.688C217.544 425.481 217.441 425.377 217.234 425.377H213.565C213.358 425.377 213.171 425.315 213.005 425.191C212.881 425.025 212.819 424.838 212.819 424.631V418.724C212.819 418.517 212.881 418.351 213.005 418.227C213.171 418.061 213.358 417.978 213.565 417.978H217.234C217.441 417.978 217.544 417.874 217.544 417.667V416.299C217.544 413.729 217.938 411.739 218.726 410.33C219.513 408.879 220.778 407.863 222.519 407.283C224.301 406.661 226.747 406.392 229.856 406.475H232.219C232.426 406.475 232.592 406.558 232.716 406.724C232.882 406.848 232.965 407.014 232.965 407.221V412.257C232.965 412.465 232.882 412.651 232.716 412.817C232.592 412.941 232.426 413.004 232.219 413.004H230.167C228.716 413.045 227.7 413.356 227.12 413.936C226.581 414.475 226.312 415.491 226.312 416.983V417.667C226.312 417.874 226.415 417.978 226.623 417.978H232.654ZM239.245 450C239.038 450 238.851 449.938 238.685 449.813C238.561 449.648 238.499 449.461 238.499 449.254V407.221C238.499 407.014 238.561 406.848 238.685 406.724C238.851 406.558 239.038 406.475 239.245 406.475H246.52C246.727 406.475 246.893 406.558 247.017 406.724C247.183 406.848 247.266 407.014 247.266 407.221V449.254C247.266 449.461 247.183 449.648 247.017 449.813C246.893 449.938 246.727 450 246.52 450H239.245ZM267.776 450.497C264.294 450.497 261.31 449.585 258.823 447.762C256.335 445.938 254.636 443.45 253.724 440.3C253.144 438.352 252.853 436.238 252.853 433.958C252.853 431.512 253.144 429.315 253.724 427.367C254.677 424.299 256.398 421.895 258.885 420.154C261.372 418.413 264.356 417.543 267.838 417.543C271.238 417.543 274.139 418.413 276.543 420.154C278.948 421.854 280.647 424.237 281.642 427.305C282.305 429.377 282.637 431.554 282.637 433.833C282.637 436.072 282.347 438.165 281.767 440.114C280.855 443.347 279.155 445.896 276.668 447.762C274.222 449.585 271.258 450.497 267.776 450.497ZM267.776 442.974C269.144 442.974 270.305 442.559 271.258 441.73C272.212 440.901 272.896 439.761 273.31 438.31C273.642 436.984 273.808 435.533 273.808 433.958C273.808 432.217 273.642 430.745 273.31 429.543C272.854 428.134 272.15 427.035 271.196 426.248C270.243 425.46 269.082 425.066 267.714 425.066C266.305 425.066 265.123 425.46 264.17 426.248C263.258 427.035 262.595 428.134 262.18 429.543C261.849 430.538 261.683 432.01 261.683 433.958C261.683 435.823 261.828 437.274 262.118 438.31C262.533 439.761 263.216 440.901 264.17 441.73C265.165 442.559 266.367 442.974 267.776 442.974ZM294.471 450C294.015 450 293.725 449.793 293.6 449.378L284.647 418.848L284.584 418.6C284.584 418.185 284.812 417.978 285.268 417.978H292.792C293.248 417.978 293.538 418.185 293.663 418.6L298.139 437.378C298.181 437.502 298.243 437.564 298.326 437.564C298.409 437.564 298.471 437.502 298.513 437.378L303.176 418.6C303.3 418.185 303.59 417.978 304.046 417.978H310.575C311.031 417.978 311.321 418.185 311.446 418.6L316.358 437.44C316.399 437.564 316.462 437.626 316.544 437.626C316.627 437.626 316.689 437.564 316.731 437.44L321.581 418.6C321.705 418.185 321.995 417.978 322.451 417.978L329.913 418.102C330.162 418.102 330.327 418.185 330.41 418.351C330.535 418.475 330.576 418.662 330.535 418.911L321.457 449.378C321.332 449.793 321.063 450 320.648 450H313.125C312.669 450 312.378 449.793 312.254 449.378L307.466 432.714C307.425 432.59 307.363 432.528 307.28 432.528C307.197 432.528 307.135 432.59 307.093 432.714L302.865 449.378C302.741 449.793 302.451 450 301.995 450H294.471ZM345.711 450.435C342.933 450.435 340.508 450.041 338.436 449.254C336.363 448.466 334.746 447.368 333.586 445.958C332.467 444.549 331.907 442.953 331.907 441.171V440.549C331.907 440.342 331.969 440.176 332.094 440.051C332.259 439.886 332.446 439.803 332.653 439.803H339.555C339.762 439.803 339.928 439.886 340.052 440.051C340.218 440.176 340.301 440.342 340.301 440.549V440.611C340.301 441.523 340.799 442.311 341.793 442.974C342.83 443.596 344.115 443.906 345.649 443.906C347.058 443.906 348.198 443.637 349.068 443.098C349.939 442.518 350.374 441.813 350.374 440.984C350.374 440.238 350.001 439.678 349.255 439.305C348.509 438.932 347.286 438.538 345.586 438.124C343.638 437.626 342.104 437.15 340.985 436.694C338.332 435.782 336.218 434.663 334.643 433.336C333.068 432.01 332.28 430.103 332.28 427.616C332.28 424.548 333.461 422.123 335.824 420.341C338.228 418.517 341.4 417.605 345.338 417.605C347.991 417.605 350.312 418.04 352.302 418.911C354.291 419.74 355.825 420.921 356.903 422.455C358.022 423.989 358.582 425.73 358.582 427.678C358.582 427.885 358.499 428.072 358.333 428.237C358.209 428.362 358.043 428.424 357.836 428.424H351.182C350.975 428.424 350.789 428.362 350.623 428.237C350.498 428.072 350.436 427.885 350.436 427.678C350.436 426.766 349.96 425.999 349.006 425.377C348.094 424.755 346.871 424.444 345.338 424.444C343.97 424.444 342.85 424.693 341.98 425.191C341.109 425.688 340.674 426.372 340.674 427.243C340.674 428.072 341.089 428.693 341.918 429.108C342.788 429.522 344.218 429.958 346.208 430.414C346.664 430.538 347.182 430.683 347.763 430.849C348.343 430.973 348.965 431.139 349.628 431.346C352.571 432.217 354.892 433.336 356.592 434.704C358.292 436.072 359.141 438.062 359.141 440.673C359.141 443.741 357.918 446.145 355.473 447.886C353.069 449.585 349.814 450.435 345.711 450.435Z" fill="#222222"/>
<g clip-path="url(#clip1_1294_50937)">
<path fill-rule="evenodd" clip-rule="evenodd" d="M249.388 80.7042C249.381 79.9524 249.524 79.2068 249.807 78.5111C250.091 77.8153 250.51 77.1834 251.039 76.6522C251.569 76.1211 252.199 75.7014 252.892 75.4177C253.585 75.1341 254.327 74.9921 255.075 75.0002C258.291 75.0002 260.815 77.4797 260.815 80.7042C260.815 83.9287 258.275 86.4082 255.075 86.4082C254.327 86.4163 253.585 86.2744 252.892 85.9907C252.199 85.707 251.569 85.2873 251.039 84.7562C250.51 84.225 250.091 83.5931 249.807 82.8973C249.524 82.2016 249.381 81.456 249.388 80.7042ZM91.0281 89.4787C90.9904 89.5166 90.9393 89.5378 90.886 89.5378H83.4502C80.6787 89.5378 78.0206 88.4317 76.0608 86.4626C74.101 84.4936 73 81.8231 73 79.0384V75.2021C73 75.1486 73.0212 75.0972 73.0589 75.0593C73.0966 75.0215 73.1477 75.0002 73.201 75.0002H90.886C90.9393 75.0002 90.9904 75.0215 91.0281 75.0593C91.0658 75.0972 91.087 75.1486 91.087 75.2021V89.3359C91.087 89.3895 91.0658 89.4408 91.0281 89.4787ZM98.5228 75.0002H130.677C130.731 75.0002 130.782 75.0215 130.819 75.0593C130.857 75.0972 130.878 75.1486 130.878 75.2021V89.3359C130.878 89.3895 130.857 89.4408 130.819 89.4787C130.782 89.5166 130.731 89.5378 130.677 89.5378H120.026C118.107 89.5378 116.267 90.3037 114.91 91.6668C113.554 93.03 112.791 94.8788 112.791 96.8067C112.791 98.7345 113.554 100.583 114.91 101.946C116.267 103.31 118.107 104.075 120.026 104.075H123.443C123.496 104.075 123.547 104.097 123.585 104.135C123.622 104.172 123.644 104.224 123.644 104.277V118.411C123.644 118.465 123.622 118.516 123.585 118.554C123.547 118.592 123.496 118.613 123.443 118.613H80.4358C80.3825 118.613 80.3314 118.592 80.2937 118.554C80.256 118.516 80.2348 118.465 80.2348 118.411V104.277C80.2348 104.224 80.256 104.172 80.2937 104.135C80.3314 104.097 80.3825 104.075 80.4358 104.075H91.087C93.0058 104.075 94.846 103.31 96.2028 101.946C97.5596 100.583 98.3218 98.7345 98.3218 96.8067V75.2021C98.3218 75.1486 98.343 75.0972 98.3807 75.0593C98.4183 75.0215 98.4695 75.0002 98.5228 75.0002ZM212.523 101.008V118.613H202.402V102.977C202.402 99.5446 201.578 97.0046 197.72 97.0046C196.02 97.0101 194.364 97.5425 192.977 98.529V118.613H182.928V89.5379H191.341L192.416 92.4272C195.046 90.0775 198.448 88.7874 201.968 88.8049C208.664 88.8049 212.523 92.8714 212.523 101.008ZM234.088 118.623L246.749 89.5478H236.305L230.357 106.975L224.219 89.5478H213.769L226.683 118.623H234.088ZM250.035 89.5601H260.16V118.551H250.035V89.5601ZM266.348 110.179V75.0002H276.151V108.455C276.151 111.411 277.497 112.116 280.317 111.562V117.258C279.153 117.874 277.377 118.613 274.129 118.613C269.473 118.613 266.348 116.951 266.348 110.179ZM154.908 75.0002H158.059L178.831 118.613H168.381L165.366 111.748H147.882L144.946 118.613H134.496L154.908 75.0002ZM156.502 90.4848L151.146 104.061H161.95L156.502 90.4848Z" fill="#222222"/>
</g>
<path d="M697.219 160.583V125.35C697.219 116.307 704.55 108.976 713.594 108.976H793.283C802.327 108.976 809.658 101.645 809.658 92.6011V-3.5" stroke="#16CA6D" stroke-width="2.18328"/>
<path d="M953.754 160.371V124.893C953.754 115.85 946.423 108.519 937.379 108.519H855.506C846.463 108.519 839.132 101.187 839.132 92.144V-8.5" stroke="#61C8D7" stroke-width="2.18328"/>
<path d="M593.513 532.62V389.9C593.513 380.856 600.844 373.525 609.888 373.525H800.925C809.968 373.525 817.299 366.194 817.299 357.15V-3.5" stroke="#FB7578" stroke-width="2.18328"/>
<path d="M1056.37 532.62V389.9C1056.37 380.856 1049.04 373.525 1039.99 373.525H847.865C838.821 373.525 831.49 366.194 831.49 357.15V-10.5" stroke="#ADADAD" stroke-width="2.18328"/>
<path d="M823.849 419.302L823.849 -3" stroke="#E0C200" stroke-width="2.18328"/>
<g filter="url(#filter0_d_1294_50937)">
<rect x="726.697" y="562.341" width="194.634" height="48.6585" fill="white"/>
<path d="M753.19 591.77C752.168 591.77 751.278 591.606 750.518 591.278C749.758 590.951 749.169 590.492 748.749 589.903C748.343 589.313 748.14 588.619 748.14 587.82V587.329C748.14 587.263 748.16 587.211 748.199 587.172C748.252 587.119 748.311 587.093 748.376 587.093H750.125C750.19 587.093 750.243 587.119 750.282 587.172C750.334 587.211 750.361 587.263 750.361 587.329V587.702C750.361 588.305 750.629 588.809 751.166 589.215C751.703 589.608 752.437 589.805 753.367 589.805C754.166 589.805 754.769 589.634 755.175 589.294C755.581 588.953 755.784 588.514 755.784 587.977C755.784 587.611 755.673 587.303 755.45 587.054C755.227 586.792 754.906 586.556 754.487 586.346C754.081 586.137 753.465 585.875 752.64 585.56C751.71 585.22 750.957 584.899 750.38 584.598C749.804 584.296 749.319 583.89 748.926 583.379C748.546 582.855 748.356 582.207 748.356 581.434C748.356 580.281 748.776 579.371 749.614 578.703C750.452 578.035 751.572 577.701 752.974 577.701C753.956 577.701 754.821 577.871 755.568 578.212C756.328 578.552 756.917 579.03 757.336 579.646C757.755 580.249 757.965 580.949 757.965 581.748V582.082C757.965 582.148 757.939 582.207 757.886 582.259C757.847 582.299 757.795 582.318 757.729 582.318H755.961C755.895 582.318 755.836 582.299 755.784 582.259C755.745 582.207 755.725 582.148 755.725 582.082V581.866C755.725 581.251 755.469 580.733 754.959 580.314C754.461 579.882 753.767 579.666 752.876 579.666C752.155 579.666 751.592 579.816 751.186 580.118C750.793 580.419 750.596 580.845 750.596 581.395C750.596 581.788 750.701 582.109 750.911 582.358C751.12 582.606 751.435 582.836 751.854 583.045C752.273 583.242 752.922 583.497 753.799 583.812C754.729 584.165 755.469 584.486 756.02 584.774C756.583 585.063 757.061 585.469 757.454 585.993C757.86 586.504 758.063 587.146 758.063 587.918C758.063 589.097 757.624 590.034 756.747 590.728C755.882 591.423 754.697 591.77 753.19 591.77ZM761.439 580.196C761.033 580.196 760.699 580.065 760.437 579.803C760.175 579.541 760.044 579.207 760.044 578.801C760.044 578.395 760.175 578.061 760.437 577.799C760.699 577.537 761.033 577.406 761.439 577.406C761.845 577.406 762.18 577.537 762.442 577.799C762.704 578.061 762.835 578.395 762.835 578.801C762.835 579.207 762.704 579.541 762.442 579.803C762.18 580.065 761.845 580.196 761.439 580.196ZM760.496 591.612C760.431 591.612 760.372 591.593 760.319 591.554C760.28 591.501 760.26 591.442 760.26 591.377V581.788C760.26 581.722 760.28 581.67 760.319 581.631C760.372 581.578 760.431 581.552 760.496 581.552H762.304C762.369 581.552 762.422 581.578 762.461 581.631C762.514 581.67 762.54 581.722 762.54 581.788V591.377C762.54 591.442 762.514 591.501 762.461 591.554C762.422 591.593 762.369 591.612 762.304 591.612H760.496ZM771.301 581.807C771.301 581.742 771.321 581.689 771.36 581.65C771.413 581.598 771.471 581.572 771.537 581.572H773.345C773.41 581.572 773.463 581.598 773.502 581.65C773.554 581.689 773.58 581.742 773.58 581.807V590.944C773.58 592.582 773.109 593.748 772.166 594.442C771.236 595.149 770.011 595.503 768.491 595.503C768.085 595.503 767.686 595.483 767.293 595.444C767.149 595.431 767.077 595.346 767.077 595.189L767.135 593.577C767.135 593.433 767.227 593.361 767.411 593.361C767.79 593.401 768.131 593.42 768.432 593.42C769.415 593.42 770.135 593.224 770.594 592.831C771.065 592.451 771.301 591.802 771.301 590.885V590.728C771.301 590.689 771.288 590.669 771.262 590.669C771.236 590.656 771.209 590.663 771.183 590.689C770.646 591.265 769.886 591.554 768.904 591.554C768.052 591.554 767.273 591.337 766.566 590.905C765.858 590.473 765.367 589.811 765.092 588.921C764.922 588.305 764.836 587.512 764.836 586.543C764.836 585.456 764.941 584.624 765.151 584.047C765.413 583.248 765.865 582.613 766.507 582.141C767.149 581.657 767.902 581.414 768.766 581.414C769.801 581.414 770.607 581.716 771.183 582.318C771.209 582.358 771.236 582.371 771.262 582.358C771.288 582.344 771.301 582.318 771.301 582.279V581.807ZM771.164 588.272C771.216 588.076 771.249 587.866 771.262 587.643C771.288 587.407 771.301 587.034 771.301 586.523C771.301 586.025 771.288 585.672 771.262 585.462C771.249 585.239 771.209 585.023 771.144 584.814C771.039 584.381 770.823 584.034 770.496 583.772C770.181 583.51 769.775 583.379 769.277 583.379C768.806 583.379 768.406 583.51 768.079 583.772C767.751 584.034 767.515 584.381 767.371 584.814C767.214 585.181 767.135 585.757 767.135 586.543C767.135 587.355 767.201 587.925 767.332 588.252C767.463 588.672 767.699 589.019 768.039 589.294C768.393 589.556 768.812 589.687 769.297 589.687C769.808 589.687 770.22 589.556 770.535 589.294C770.849 589.032 771.059 588.691 771.164 588.272ZM780.749 581.414C781.81 581.414 782.655 581.729 783.284 582.358C783.926 582.986 784.247 583.844 784.247 584.932V591.377C784.247 591.442 784.221 591.501 784.168 591.554C784.129 591.593 784.077 591.612 784.011 591.612H782.203C782.138 591.612 782.079 591.593 782.026 591.554C781.987 591.501 781.967 591.442 781.967 591.377V585.403C781.967 584.801 781.797 584.316 781.457 583.949C781.116 583.569 780.664 583.379 780.101 583.379C779.537 583.379 779.079 583.563 778.725 583.93C778.385 584.296 778.214 584.781 778.214 585.384V591.377C778.214 591.442 778.188 591.501 778.136 591.554C778.097 591.593 778.044 591.612 777.979 591.612H776.171C776.105 591.612 776.046 591.593 775.994 591.554C775.955 591.501 775.935 591.442 775.935 591.377V581.807C775.935 581.742 775.955 581.689 775.994 581.65C776.046 581.598 776.105 581.572 776.171 581.572H777.979C778.044 581.572 778.097 581.598 778.136 581.65C778.188 581.689 778.214 581.742 778.214 581.807V582.436C778.214 582.475 778.228 582.502 778.254 582.515C778.28 582.528 778.3 582.515 778.313 582.475C778.85 581.768 779.662 581.414 780.749 581.414Z" fill="#222222"/>
<rect x="726.697" y="408.119" width="194.634" height="154.223" fill="#E0C200"/>
<path d="M797.446 432.036H849.794L867.194 451.959V524.404H797.446V432.036Z" stroke="#222222" stroke-width="1.64944"/>
<path d="M783.19 446.056H836.738L854.588 466.495V540.074H783.19V446.056Z" fill="white"/>
<path d="M849.992 432.271V451.358H867.665" stroke="#222222" stroke-width="1.64944"/>
<line x1="796.621" y1="463.611" x2="832.057" y2="463.611" stroke="#ADADAD" stroke-width="1.64944"/>
<line x1="796.621" y1="472.513" x2="840.449" y2="472.513" stroke="#ADADAD" stroke-width="1.64944"/>
<line x1="796.621" y1="481.162" x2="840.449" y2="481.162" stroke="#ADADAD" stroke-width="1.64944"/>
<line x1="796.621" y1="489.81" x2="840.449" y2="489.81" stroke="#ADADAD" stroke-width="1.64944"/>
<line x1="796.621" y1="498.459" x2="840.449" y2="498.459" stroke="#ADADAD" stroke-width="1.64944"/>
<line x1="796.621" y1="524.404" x2="840.449" y2="524.404" stroke="#ADADAD" stroke-width="1.64944"/>
<circle cx="793.441" cy="511.445" r="20.8536" fill="#222222"/>
<path d="M781.069 513.041C784.505 513.041 787.562 510.196 789.859 507.94C790.676 507.138 793.379 503.85 790.136 504.953C787.082 505.991 780.554 517.387 786.601 517.387C788.171 517.387 789.169 517.201 790.474 516.24C790.637 516.12 792.372 514.509 792.395 514.565C792.742 515.417 792.467 515.813 793.24 516.572C794.056 517.373 794.883 517.658 796.021 517.658C797.24 517.658 797.178 517.594 797.942 516.844C798.554 516.243 798.649 516.426 799.341 516.723C801.16 517.504 804.594 518.917 806.517 517.658" stroke="#FFEF86" stroke-width="1.64944" stroke-linecap="square"/>
</g>
<g filter="url(#filter1_d_1294_50937)">
<rect x="959.771" y="562.341" width="194.634" height="48.6585" fill="white"/>
<path d="M980.41 591.612C980.345 591.612 980.286 591.593 980.234 591.554C980.194 591.501 980.175 591.442 980.175 591.377V578.094C980.175 578.028 980.194 577.976 980.234 577.936C980.286 577.884 980.345 577.858 980.41 577.858H985.205C986.135 577.858 986.954 578.022 987.661 578.349C988.368 578.677 988.912 579.148 989.292 579.764C989.685 580.366 989.882 581.074 989.882 581.886V587.584C989.882 588.397 989.685 589.11 989.292 589.726C988.912 590.329 988.368 590.794 987.661 591.121C986.954 591.449 986.135 591.612 985.205 591.612H980.41ZM982.454 589.549C982.454 589.615 982.487 589.648 982.552 589.648H985.303C985.997 589.648 986.548 589.431 986.954 588.999C987.373 588.554 987.589 587.964 987.602 587.231V582.259C987.602 581.513 987.393 580.923 986.973 580.491C986.554 580.045 985.991 579.823 985.284 579.823H982.552C982.487 579.823 982.454 579.856 982.454 579.921V589.549ZM1000.57 585.462C1000.63 585.79 1000.65 586.156 1000.65 586.563L1000.63 587.172C1000.63 587.329 1000.55 587.407 1000.4 587.407H994.247C994.181 587.407 994.149 587.44 994.149 587.506C994.188 587.938 994.247 588.233 994.326 588.39C994.64 589.333 995.406 589.811 996.625 589.824C997.515 589.824 998.223 589.458 998.747 588.724C998.799 588.645 998.865 588.606 998.943 588.606C998.996 588.606 999.041 588.626 999.081 588.665L1000.3 589.667C1000.42 589.759 1000.44 589.864 1000.36 589.982C999.952 590.558 999.408 591.003 998.727 591.318C998.059 591.632 997.312 591.789 996.487 591.789C995.465 591.789 994.594 591.56 993.874 591.102C993.166 590.643 992.649 590.001 992.321 589.176C992.02 588.469 991.869 587.486 991.869 586.229C991.869 585.469 991.948 584.853 992.105 584.381C992.367 583.464 992.858 582.744 993.579 582.22C994.312 581.683 995.19 581.414 996.212 581.414C998.793 581.414 1000.25 582.764 1000.57 585.462ZM996.212 583.379C995.727 583.379 995.321 583.504 994.994 583.753C994.679 583.988 994.457 584.323 994.326 584.755C994.247 584.978 994.195 585.266 994.168 585.619C994.142 585.685 994.168 585.718 994.247 585.718H998.236C998.301 585.718 998.334 585.685 998.334 585.619C998.308 585.292 998.269 585.043 998.216 584.873C998.098 584.401 997.862 584.034 997.509 583.772C997.168 583.51 996.736 583.379 996.212 583.379ZM1002.97 591.612C1002.91 591.612 1002.85 591.593 1002.79 591.554C1002.76 591.501 1002.74 591.442 1002.74 591.377V578.094C1002.74 578.028 1002.76 577.976 1002.79 577.936C1002.85 577.884 1002.91 577.858 1002.97 577.858H1004.78C1004.84 577.858 1004.9 577.884 1004.94 577.936C1004.99 577.976 1005.02 578.028 1005.02 578.094V591.377C1005.02 591.442 1004.99 591.501 1004.94 591.554C1004.9 591.593 1004.84 591.612 1004.78 591.612H1002.97ZM1008.73 580.196C1008.33 580.196 1007.99 580.065 1007.73 579.803C1007.47 579.541 1007.34 579.207 1007.34 578.801C1007.34 578.395 1007.47 578.061 1007.73 577.799C1007.99 577.537 1008.33 577.406 1008.73 577.406C1009.14 577.406 1009.47 577.537 1009.74 577.799C1010 578.061 1010.13 578.395 1010.13 578.801C1010.13 579.207 1010 579.541 1009.74 579.803C1009.47 580.065 1009.14 580.196 1008.73 580.196ZM1007.79 591.612C1007.73 591.612 1007.67 591.593 1007.61 591.554C1007.57 591.501 1007.56 591.442 1007.56 591.377V581.788C1007.56 581.722 1007.57 581.67 1007.61 581.631C1007.67 581.578 1007.73 581.552 1007.79 581.552H1009.6C1009.66 581.552 1009.72 581.578 1009.76 581.631C1009.81 581.67 1009.83 581.722 1009.83 581.788V591.377C1009.83 591.442 1009.81 591.501 1009.76 591.554C1009.72 591.593 1009.66 591.612 1009.6 591.612H1007.79ZM1015.16 591.612C1015.03 591.612 1014.94 591.547 1014.9 591.416L1011.74 581.827C1011.72 581.801 1011.72 581.768 1011.72 581.729C1011.72 581.611 1011.79 581.552 1011.93 581.552H1013.94C1014.08 581.552 1014.17 581.617 1014.21 581.748L1016.12 588.311C1016.13 588.351 1016.15 588.37 1016.18 588.37C1016.21 588.37 1016.22 588.351 1016.24 588.311L1018.14 581.748C1018.18 581.617 1018.27 581.552 1018.42 581.552L1020.42 581.591C1020.5 581.591 1020.56 581.617 1020.6 581.67C1020.64 581.709 1020.65 581.775 1020.62 581.866L1017.48 591.416C1017.44 591.547 1017.35 591.612 1017.22 591.612H1015.16ZM1030.28 585.462C1030.33 585.79 1030.36 586.156 1030.36 586.563L1030.34 587.172C1030.34 587.329 1030.26 587.407 1030.1 587.407H1023.95C1023.89 587.407 1023.85 587.44 1023.85 587.506C1023.89 587.938 1023.95 588.233 1024.03 588.39C1024.34 589.333 1025.11 589.811 1026.33 589.824C1027.22 589.824 1027.93 589.458 1028.45 588.724C1028.5 588.645 1028.57 588.606 1028.65 588.606C1028.7 588.606 1028.75 588.626 1028.79 588.665L1030 589.667C1030.12 589.759 1030.14 589.864 1030.06 589.982C1029.66 590.558 1029.11 591.003 1028.43 591.318C1027.76 591.632 1027.02 591.789 1026.19 591.789C1025.17 591.789 1024.3 591.56 1023.58 591.102C1022.87 590.643 1022.35 590.001 1022.03 589.176C1021.72 588.469 1021.57 587.486 1021.57 586.229C1021.57 585.469 1021.65 584.853 1021.81 584.381C1022.07 583.464 1022.56 582.744 1023.28 582.22C1024.02 581.683 1024.89 581.414 1025.92 581.414C1028.5 581.414 1029.95 582.764 1030.28 585.462ZM1025.92 583.379C1025.43 583.379 1025.03 583.504 1024.7 583.753C1024.38 583.988 1024.16 584.323 1024.03 584.755C1023.95 584.978 1023.9 585.266 1023.87 585.619C1023.85 585.685 1023.87 585.718 1023.95 585.718H1027.94C1028.01 585.718 1028.04 585.685 1028.04 585.619C1028.01 585.292 1027.97 585.043 1027.92 584.873C1027.8 584.401 1027.57 584.034 1027.21 583.772C1026.87 583.51 1026.44 583.379 1025.92 583.379ZM1037.12 581.454C1037.54 581.454 1037.9 581.539 1038.22 581.709C1038.32 581.762 1038.36 581.86 1038.34 582.004L1038 583.772C1037.99 583.93 1037.9 583.975 1037.73 583.91C1037.53 583.844 1037.3 583.812 1037.04 583.812C1036.87 583.812 1036.74 583.818 1036.65 583.831C1036.1 583.857 1035.64 584.054 1035.27 584.421C1034.9 584.774 1034.72 585.239 1034.72 585.816V591.377C1034.72 591.442 1034.69 591.501 1034.64 591.554C1034.6 591.593 1034.55 591.612 1034.48 591.612H1032.68C1032.61 591.612 1032.55 591.593 1032.5 591.554C1032.46 591.501 1032.44 591.442 1032.44 591.377V581.807C1032.44 581.742 1032.46 581.689 1032.5 581.65C1032.55 581.598 1032.61 581.572 1032.68 581.572H1034.48C1034.55 581.572 1034.6 581.598 1034.64 581.65C1034.69 581.689 1034.72 581.742 1034.72 581.807V582.692C1034.72 582.744 1034.73 582.777 1034.74 582.79C1034.77 582.79 1034.79 582.77 1034.82 582.731C1035.37 581.879 1036.13 581.454 1037.12 581.454Z" fill="#222222"/>
<rect x="960.305" y="408.385" width="194.312" height="153.921" fill="#525252"/>
<path fill-rule="evenodd" clip-rule="evenodd" d="M1019.63 512.265C1019.61 512.265 1019.59 512.265 1019.57 512.265C1008.16 512.265 998.917 502.818 998.917 491.164C998.917 479.51 1008.16 470.062 1019.57 470.062C1020.6 470.062 1021.61 470.139 1022.6 470.287C1024.85 454.419 1038.32 442.226 1054.59 442.226C1068.84 442.226 1080.94 451.581 1085.24 464.566C1087.21 464.051 1089.28 463.776 1091.4 463.776C1104.79 463.776 1115.65 474.631 1115.65 488.021C1115.65 501.41 1104.79 512.265 1091.4 512.265C1091.1 512.265 1090.8 512.26 1090.51 512.249V512.265H1019.63Z" fill="white"/>
<line x1="1056.77" y1="513.262" x2="1056.77" y2="472.454" stroke="#16CA6D" stroke-width="2.18328"/>
<path d="M1049.55 479.255L1057.11 471.698L1064.66 479.255" stroke="#16CA6D" stroke-width="2.18328"/>
<line x1="1039.39" y1="529.887" x2="1039.39" y2="489.079" stroke="#FB7578" stroke-width="2.18328"/>
<path d="M1032.17 495.88L1039.72 488.323L1047.28 495.88" stroke="#FB7578" stroke-width="2.18328"/>
<line x1="1074.15" y1="529.887" x2="1074.15" y2="489.079" stroke="#61C8D7" stroke-width="2.18328"/>
<path d="M1066.93 495.88L1074.48 488.323L1082.04 495.88" stroke="#61C8D7" stroke-width="2.18328"/>
<line x1="1039.39" y1="538.955" x2="1039.39" y2="513.261" stroke="white" stroke-width="2.18328"/>
<line x1="1056.77" y1="538.955" x2="1056.77" y2="513.261" stroke="white" stroke-width="2.18328"/>
<line x1="1074.15" y1="538.955" x2="1074.15" y2="513.261" stroke="white" stroke-width="2.18328"/>
</g>
<g filter="url(#filter2_d_1294_50937)">
<rect x="495.265" y="561.516" width="194.634" height="49.4832" fill="white"/>
<path d="M522.838 577.013C523.663 577.013 524.39 577.183 525.019 577.524C525.648 577.865 526.132 578.349 526.473 578.978C526.827 579.594 527.003 580.308 527.003 581.12C527.003 581.919 526.827 582.626 526.473 583.242C526.119 583.858 525.615 584.336 524.96 584.676C524.318 585.004 523.571 585.168 522.72 585.168H519.576C519.51 585.168 519.478 585.2 519.478 585.266V590.552C519.478 590.617 519.451 590.676 519.399 590.728C519.36 590.768 519.307 590.787 519.242 590.787H517.434C517.369 590.787 517.31 590.768 517.257 590.728C517.218 590.676 517.198 590.617 517.198 590.552V577.249C517.198 577.183 517.218 577.131 517.257 577.092C517.31 577.039 517.369 577.013 517.434 577.013H522.838ZM522.504 583.321C523.172 583.321 523.709 583.124 524.115 582.731C524.521 582.338 524.724 581.821 524.724 581.179C524.724 580.524 524.521 579.993 524.115 579.587C523.709 579.181 523.172 578.978 522.504 578.978H519.576C519.51 578.978 519.478 579.011 519.478 579.076V583.222C519.478 583.288 519.51 583.321 519.576 583.321H522.504ZM532.503 580.589C533.328 580.589 534.055 580.733 534.684 581.022C535.313 581.31 535.797 581.709 536.138 582.22C536.478 582.718 536.649 583.288 536.649 583.93V590.552C536.649 590.617 536.623 590.676 536.57 590.728C536.531 590.768 536.478 590.787 536.413 590.787H534.605C534.54 590.787 534.481 590.768 534.428 590.728C534.389 590.676 534.369 590.617 534.369 590.552V589.923C534.369 589.883 534.356 589.864 534.33 589.864C534.304 589.851 534.278 589.857 534.252 589.883C533.61 590.591 532.68 590.945 531.461 590.945C530.479 590.945 529.667 590.696 529.025 590.198C528.396 589.7 528.082 588.96 528.082 587.977C528.082 586.956 528.435 586.163 529.143 585.6C529.863 585.023 530.872 584.735 532.169 584.735H534.271C534.337 584.735 534.369 584.703 534.369 584.637V584.165C534.369 583.655 534.219 583.262 533.917 582.986C533.616 582.698 533.164 582.554 532.562 582.554C532.064 582.554 531.658 582.646 531.343 582.829C531.042 583 530.852 583.242 530.774 583.556C530.734 583.714 530.643 583.779 530.498 583.753L528.592 583.517C528.527 583.504 528.468 583.484 528.416 583.458C528.376 583.419 528.363 583.373 528.376 583.321C528.481 582.521 528.907 581.866 529.654 581.356C530.413 580.845 531.363 580.589 532.503 580.589ZM532.031 589.137C532.673 589.137 533.223 588.966 533.682 588.626C534.14 588.285 534.369 587.853 534.369 587.329V586.406C534.369 586.34 534.337 586.307 534.271 586.307H532.621C531.926 586.307 531.376 586.438 530.97 586.7C530.577 586.962 530.381 587.336 530.381 587.82C530.381 588.239 530.531 588.567 530.833 588.803C531.147 589.025 531.546 589.137 532.031 589.137ZM543.122 590.945C542.114 590.945 541.243 590.689 540.509 590.178C539.776 589.654 539.265 588.953 538.976 588.076C538.767 587.486 538.662 586.7 538.662 585.718C538.662 584.775 538.767 584.002 538.976 583.399C539.252 582.535 539.756 581.853 540.489 581.356C541.236 580.845 542.114 580.589 543.122 580.589C544.144 580.589 545.035 580.845 545.795 581.356C546.555 581.866 547.059 582.508 547.308 583.281C547.373 583.491 547.419 583.7 547.445 583.91V583.949C547.445 584.08 547.373 584.159 547.229 584.185L545.461 584.441H545.421C545.304 584.441 545.225 584.375 545.186 584.244C545.186 584.179 545.179 584.126 545.166 584.087C545.14 583.982 545.114 583.89 545.087 583.812C544.97 583.445 544.734 583.144 544.38 582.908C544.026 582.672 543.607 582.554 543.122 582.554C542.625 582.554 542.199 582.685 541.845 582.947C541.505 583.196 541.275 583.543 541.158 583.989C541.027 584.408 540.961 584.991 540.961 585.737C540.961 586.458 541.02 587.041 541.138 587.486C541.269 587.945 541.505 588.312 541.845 588.587C542.186 588.849 542.612 588.98 543.122 588.98C543.62 588.98 544.046 588.855 544.4 588.606C544.767 588.344 545.002 587.997 545.107 587.565C545.12 587.539 545.127 587.506 545.127 587.467C545.14 587.453 545.146 587.434 545.146 587.408C545.186 587.25 545.277 587.185 545.421 587.211L547.19 587.486C547.255 587.499 547.308 587.532 547.347 587.584C547.4 587.624 547.419 587.683 547.406 587.761C547.367 587.971 547.334 588.122 547.308 588.213C547.059 589.052 546.555 589.72 545.795 590.218C545.035 590.702 544.144 590.945 543.122 590.945ZM549.612 590.787C549.546 590.787 549.487 590.768 549.435 590.728C549.396 590.676 549.376 590.617 549.376 590.552V577.268C549.376 577.203 549.396 577.151 549.435 577.111C549.487 577.059 549.546 577.033 549.612 577.033H551.42C551.485 577.033 551.537 577.059 551.577 577.111C551.629 577.151 551.655 577.203 551.655 577.268V584.362C551.655 584.401 551.668 584.427 551.695 584.441C551.721 584.454 551.747 584.441 551.773 584.401L554.956 580.884C555.048 580.792 555.146 580.746 555.251 580.746H557.334C557.465 580.746 557.53 580.792 557.53 580.884C557.53 580.923 557.511 580.976 557.472 581.041L554.976 584.028C554.937 584.067 554.93 584.113 554.956 584.165L557.904 590.512C557.93 590.565 557.943 590.604 557.943 590.63C557.943 590.735 557.871 590.787 557.727 590.787H555.821C555.69 590.787 555.598 590.728 555.546 590.611L553.404 585.62C553.391 585.593 553.365 585.58 553.326 585.58C553.299 585.567 553.28 585.574 553.267 585.6L551.695 587.408C551.668 587.46 551.655 587.506 551.655 587.545V590.552C551.655 590.617 551.629 590.676 551.577 590.728C551.537 590.768 551.485 590.787 551.42 590.787H549.612ZM563.147 580.589C563.973 580.589 564.7 580.733 565.329 581.022C565.957 581.31 566.442 581.709 566.783 582.22C567.123 582.718 567.294 583.288 567.294 583.93V590.552C567.294 590.617 567.267 590.676 567.215 590.728C567.176 590.768 567.123 590.787 567.058 590.787H565.25C565.184 590.787 565.126 590.768 565.073 590.728C565.034 590.676 565.014 590.617 565.014 590.552V589.923C565.014 589.883 565.001 589.864 564.975 589.864C564.949 589.851 564.923 589.857 564.896 589.883C564.254 590.591 563.324 590.945 562.106 590.945C561.124 590.945 560.311 590.696 559.67 590.198C559.041 589.7 558.726 588.96 558.726 587.977C558.726 586.956 559.08 586.163 559.787 585.6C560.508 585.023 561.517 584.735 562.813 584.735H564.916C564.981 584.735 565.014 584.703 565.014 584.637V584.165C565.014 583.655 564.864 583.262 564.562 582.986C564.261 582.698 563.809 582.554 563.206 582.554C562.709 582.554 562.303 582.646 561.988 582.829C561.687 583 561.497 583.242 561.418 583.556C561.379 583.714 561.287 583.779 561.143 583.753L559.237 583.517C559.172 583.504 559.113 583.484 559.06 583.458C559.021 583.419 559.008 583.373 559.021 583.321C559.126 582.521 559.552 581.866 560.298 581.356C561.058 580.845 562.008 580.589 563.147 580.589ZM562.676 589.137C563.318 589.137 563.868 588.966 564.326 588.626C564.785 588.285 565.014 587.853 565.014 587.329V586.406C565.014 586.34 564.981 586.307 564.916 586.307H563.265C562.571 586.307 562.021 586.438 561.615 586.7C561.222 586.962 561.025 587.336 561.025 587.82C561.025 588.239 561.176 588.567 561.477 588.803C561.792 589.025 562.191 589.137 562.676 589.137ZM575.732 580.982C575.732 580.917 575.752 580.864 575.791 580.825C575.844 580.773 575.903 580.746 575.968 580.746H577.776C577.841 580.746 577.894 580.773 577.933 580.825C577.985 580.864 578.012 580.917 578.012 580.982V590.119C578.012 591.757 577.54 592.923 576.597 593.617C575.667 594.324 574.442 594.678 572.922 594.678C572.516 594.678 572.117 594.658 571.724 594.619C571.58 594.606 571.508 594.521 571.508 594.364L571.567 592.752C571.567 592.608 571.658 592.536 571.842 592.536C572.222 592.575 572.562 592.595 572.863 592.595C573.846 592.595 574.566 592.399 575.025 592.006C575.496 591.626 575.732 590.977 575.732 590.06V589.903C575.732 589.864 575.719 589.844 575.693 589.844C575.667 589.831 575.641 589.838 575.614 589.864C575.077 590.44 574.317 590.728 573.335 590.728C572.484 590.728 571.704 590.512 570.997 590.08C570.289 589.648 569.798 588.986 569.523 588.095C569.353 587.48 569.268 586.687 569.268 585.718C569.268 584.631 569.372 583.799 569.582 583.222C569.844 582.423 570.296 581.788 570.938 581.316C571.58 580.832 572.333 580.589 573.197 580.589C574.232 580.589 575.038 580.891 575.614 581.493C575.641 581.532 575.667 581.546 575.693 581.532C575.719 581.519 575.732 581.493 575.732 581.454V580.982ZM575.595 587.447C575.647 587.25 575.68 587.041 575.693 586.818C575.719 586.582 575.732 586.209 575.732 585.698C575.732 585.2 575.719 584.847 575.693 584.637C575.68 584.414 575.641 584.198 575.575 583.989C575.47 583.556 575.254 583.209 574.927 582.947C574.612 582.685 574.206 582.554 573.708 582.554C573.237 582.554 572.837 582.685 572.51 582.947C572.182 583.209 571.946 583.556 571.802 583.989C571.645 584.355 571.567 584.932 571.567 585.718C571.567 586.53 571.632 587.1 571.763 587.427C571.894 587.846 572.13 588.194 572.47 588.469C572.824 588.731 573.243 588.862 573.728 588.862C574.239 588.862 574.652 588.731 574.966 588.469C575.28 588.207 575.49 587.866 575.595 587.447ZM588.835 584.637C588.887 584.965 588.914 585.331 588.914 585.737L588.894 586.347C588.894 586.504 588.815 586.582 588.658 586.582H582.508C582.442 586.582 582.41 586.615 582.41 586.681C582.449 587.113 582.508 587.408 582.587 587.565C582.901 588.508 583.667 588.986 584.886 588.999C585.776 588.999 586.484 588.632 587.008 587.899C587.06 587.82 587.126 587.781 587.204 587.781C587.257 587.781 587.302 587.801 587.342 587.84L588.56 588.842C588.678 588.934 588.698 589.039 588.619 589.156C588.213 589.733 587.669 590.178 586.988 590.493C586.32 590.807 585.573 590.964 584.748 590.964C583.726 590.964 582.855 590.735 582.135 590.276C581.427 589.818 580.91 589.176 580.582 588.351C580.281 587.643 580.13 586.661 580.13 585.403C580.13 584.644 580.209 584.028 580.366 583.556C580.628 582.639 581.119 581.919 581.84 581.395C582.573 580.858 583.451 580.589 584.473 580.589C587.054 580.589 588.508 581.939 588.835 584.637ZM584.473 582.554C583.988 582.554 583.582 582.679 583.255 582.928C582.94 583.163 582.718 583.497 582.587 583.93C582.508 584.152 582.456 584.441 582.429 584.794C582.403 584.86 582.429 584.893 582.508 584.893H586.497C586.562 584.893 586.595 584.86 586.595 584.794C586.569 584.467 586.53 584.218 586.477 584.048C586.359 583.576 586.123 583.209 585.77 582.947C585.429 582.685 584.997 582.554 584.473 582.554Z" fill="#222222"/>
<rect x="496.09" y="407.294" width="194.634" height="154.223" fill="#FB7578"/>
<rect x="631.344" y="444.991" width="17.783" height="18.524" fill="#222222"/>
<line x1="639.41" y1="507.973" x2="639.41" y2="479.076" stroke="#222222" stroke-width="1.64944"/>
<line x1="594.224" y1="453.349" x2="649.312" y2="452.878" stroke="#222222" stroke-width="1.64944"/>
<line x1="614.024" y1="479.044" x2="639.591" y2="479.044" stroke="#222222" stroke-width="1.64944"/>
<line x1="639.592" y1="507.909" x2="670.106" y2="507.909" stroke="#222222" stroke-width="1.64944"/>
<path d="M666.791 504.97L670.109 508.287L666.791 511.605" stroke="#222222" stroke-width="1.64944"/>
<rect x="631.344" y="498.341" width="17.783" height="18.524" fill="white"/>
<rect x="526.605" y="444.991" width="17.783" height="18.524" fill="#222222"/>
<rect x="571.263" y="508.528" width="15.9808" height="15.9808" transform="rotate(-45 571.263 508.528)" fill="#222222"/>
<line x1="563.569" y1="479.817" x2="563.569" y2="453.883" stroke="#222222" stroke-width="1.64944"/>
<line x1="534.671" y1="507.973" x2="534.671" y2="479.076" stroke="#222222" stroke-width="1.64944"/>
<line x1="534.94" y1="453.349" x2="590.028" y2="452.878" stroke="#222222" stroke-width="1.64944"/>
<line x1="535.496" y1="478.992" x2="614.779" y2="478.992" stroke="#222222" stroke-width="1.64944"/>
<rect x="564.348" y="465.801" width="18.2477" height="18.2477" transform="rotate(45 564.348 465.801)" fill="#222222"/>
<rect x="578.734" y="453.232" width="15.9808" height="15.9808" transform="rotate(-45 578.734 453.232)" fill="white"/>
<circle cx="611.445" cy="478.705" r="10.003" fill="#222222"/>
<line x1="535.318" y1="508.016" x2="583.979" y2="508.016" stroke="#222222" stroke-width="1.64944"/>
<path d="M580.662 504.97L583.979 508.287L580.662 511.605" stroke="#222222" stroke-width="1.64944"/>
<rect x="526.605" y="498.34" width="17.783" height="18.524" fill="white"/>
</g>
<g filter="url(#filter3_d_1294_50937)">
<rect x="852.233" y="291.347" width="194.634" height="49.4832" fill="white"/>
<path d="M883.579 308.593C883.579 308.658 883.553 308.717 883.501 308.77C883.461 308.809 883.409 308.829 883.343 308.829H876.663C876.597 308.829 876.564 308.861 876.564 308.927V312.601C876.564 312.667 876.597 312.7 876.663 312.7H881.162C881.228 312.7 881.28 312.726 881.32 312.778C881.372 312.817 881.398 312.87 881.398 312.935V314.429C881.398 314.494 881.372 314.553 881.32 314.606C881.28 314.645 881.228 314.664 881.162 314.664H876.663C876.597 314.664 876.564 314.697 876.564 314.763V320.382C876.564 320.448 876.538 320.507 876.486 320.559C876.446 320.599 876.394 320.618 876.329 320.618H874.521C874.455 320.618 874.396 320.599 874.344 320.559C874.305 320.507 874.285 320.448 874.285 320.382V307.099C874.285 307.034 874.305 306.982 874.344 306.942C874.396 306.89 874.455 306.864 874.521 306.864H883.343C883.409 306.864 883.461 306.89 883.501 306.942C883.553 306.982 883.579 307.034 883.579 307.099V308.593ZM886.438 309.202C886.032 309.202 885.698 309.071 885.436 308.809C885.174 308.547 885.043 308.213 885.043 307.807C885.043 307.401 885.174 307.067 885.436 306.805C885.698 306.543 886.032 306.412 886.438 306.412C886.844 306.412 887.178 306.543 887.44 306.805C887.702 307.067 887.833 307.401 887.833 307.807C887.833 308.213 887.702 308.547 887.44 308.809C887.178 309.071 886.844 309.202 886.438 309.202ZM885.495 320.618C885.429 320.618 885.37 320.599 885.318 320.559C885.278 320.507 885.259 320.448 885.259 320.382V310.794C885.259 310.728 885.278 310.676 885.318 310.636C885.37 310.584 885.429 310.558 885.495 310.558H887.302C887.368 310.558 887.42 310.584 887.46 310.636C887.512 310.676 887.538 310.728 887.538 310.794V320.382C887.538 320.448 887.512 320.507 887.46 320.559C887.42 320.599 887.368 320.618 887.302 320.618H885.495ZM890.385 320.618C890.32 320.618 890.261 320.599 890.208 320.559C890.169 320.507 890.149 320.448 890.149 320.382V307.099C890.149 307.034 890.169 306.982 890.208 306.942C890.261 306.89 890.32 306.864 890.385 306.864H892.193C892.258 306.864 892.311 306.89 892.35 306.942C892.402 306.982 892.429 307.034 892.429 307.099V320.382C892.429 320.448 892.402 320.507 892.35 320.559C892.311 320.599 892.258 320.618 892.193 320.618H890.385ZM895.086 320.618C895.021 320.618 894.962 320.599 894.909 320.559C894.87 320.507 894.851 320.448 894.851 320.382V307.099C894.851 307.034 894.87 306.982 894.909 306.942C894.962 306.89 895.021 306.864 895.086 306.864H896.894C896.96 306.864 897.012 306.89 897.051 306.942C897.104 306.982 897.13 307.034 897.13 307.099V320.382C897.13 320.448 897.104 320.507 897.051 320.559C897.012 320.599 896.96 320.618 896.894 320.618H895.086Z" fill="#222222"/>
<rect x="852.233" y="137.125" width="195.459" height="154.223" fill="#61C8D7"/>
<path d="M928.269 160.925H980.846L998.328 180.943V253.628H928.269V160.925Z" stroke="#222222" stroke-width="1.41533"/>
<path d="M980.99 161.278V180.385H998.681" stroke="#222222" stroke-width="1.41533"/>
<path d="M914.115 175.078H967.72L985.589 195.539V269.197H914.115V175.078Z" fill="white"/>
<line x1="927.562" y1="192.769" x2="963.035" y2="192.769" stroke="#ADADAD" stroke-width="1.41533"/>
<line x1="927.562" y1="201.681" x2="971.437" y2="201.681" stroke="#ADADAD" stroke-width="1.41533"/>
<line x1="927.562" y1="210.339" x2="971.437" y2="210.339" stroke="#ADADAD" stroke-width="1.41533"/>
<line x1="927.562" y1="218.997" x2="971.437" y2="218.997" stroke="#ADADAD" stroke-width="1.41533"/>
<line x1="927.562" y1="227.655" x2="971.437" y2="227.655" stroke="#ADADAD" stroke-width="1.41533"/>
<line x1="927.562" y1="236.313" x2="971.437" y2="236.313" stroke="#ADADAD" stroke-width="1.41533"/>
<line x1="927.562" y1="244.971" x2="971.437" y2="244.971" stroke="#ADADAD" stroke-width="1.41533"/>
<line x1="927.562" y1="253.628" x2="971.437" y2="253.628" stroke="#ADADAD" stroke-width="1.41533"/>
<circle cx="918.715" cy="210.107" r="20.8761" fill="#222222"/>
<mask id="mask0_1294_50937" style="mask-type:alpha" maskUnits="userSpaceOnUse" x="897" y="189" width="43" height="42">
<circle cx="918.716" cy="210.107" r="20.8761" fill="#7AEFB2"/>
</mask>
<g mask="url(#mask0_1294_50937)">
<line x1="914.118" y1="201.261" x2="967.901" y2="201.262" stroke="#7AEFB2" stroke-width="2.83065"/>
<line x1="914.118" y1="209.754" x2="967.901" y2="209.754" stroke="#7AEFB2" stroke-width="2.83065"/>
<line x1="914.118" y1="218.246" x2="967.901" y2="218.246" stroke="#7AEFB2" stroke-width="2.83065"/>
</g>
<line x1="888.846" y1="241.435" x2="905.83" y2="224.451" stroke="#222222" stroke-width="1.41533"/>
</g>
<g filter="url(#filter4_d_1294_50937)">
<rect x="601.154" y="289.698" width="194.634" height="51.1327" fill="white"/>
<path d="M627.804 319.126C626.822 319.126 625.957 318.936 625.211 318.556C624.464 318.163 623.888 317.62 623.481 316.926C623.075 316.231 622.872 315.426 622.872 314.509V309.655C622.872 308.738 623.075 307.933 623.481 307.238C623.888 306.544 624.464 306.007 625.211 305.627C625.957 305.247 626.822 305.057 627.804 305.057C628.774 305.057 629.632 305.241 630.378 305.607C631.125 305.974 631.702 306.492 632.108 307.16C632.514 307.828 632.717 308.601 632.717 309.478C632.717 309.544 632.691 309.603 632.638 309.655C632.599 309.695 632.546 309.714 632.481 309.714L630.673 309.812C630.516 309.812 630.437 309.74 630.437 309.596C630.437 308.823 630.195 308.201 629.71 307.73C629.239 307.258 628.603 307.022 627.804 307.022C627.005 307.022 626.363 307.258 625.879 307.73C625.394 308.201 625.152 308.823 625.152 309.596V314.607C625.152 315.367 625.394 315.982 625.879 316.454C626.363 316.926 627.005 317.161 627.804 317.161C628.603 317.161 629.239 316.932 629.71 316.474C630.195 316.002 630.437 315.38 630.437 314.607C630.437 314.463 630.516 314.391 630.673 314.391L632.481 314.469C632.546 314.469 632.599 314.489 632.638 314.528C632.691 314.568 632.717 314.613 632.717 314.666C632.717 315.557 632.514 316.343 632.108 317.024C631.702 317.692 631.125 318.209 630.378 318.576C629.632 318.943 628.774 319.126 627.804 319.126ZM639.19 319.126C638.155 319.126 637.264 318.864 636.517 318.34C635.784 317.816 635.266 317.089 634.965 316.159C634.742 315.452 634.631 314.705 634.631 313.919C634.631 313.081 634.736 312.334 634.945 311.679C635.247 310.762 635.771 310.048 636.517 309.537C637.264 309.026 638.161 308.771 639.209 308.771C640.205 308.771 641.063 309.026 641.783 309.537C642.517 310.048 643.034 310.756 643.336 311.659C643.572 312.288 643.689 313.035 643.689 313.9C643.689 314.725 643.578 315.472 643.355 316.14C643.054 317.07 642.537 317.803 641.803 318.34C641.07 318.864 640.198 319.126 639.19 319.126ZM639.19 317.161C639.674 317.161 640.087 317.024 640.428 316.749C640.781 316.474 641.037 316.087 641.194 315.589C641.325 315.157 641.39 314.607 641.39 313.939C641.39 313.231 641.325 312.681 641.194 312.288C641.05 311.79 640.801 311.411 640.447 311.149C640.094 310.874 639.661 310.736 639.15 310.736C638.666 310.736 638.247 310.874 637.893 311.149C637.539 311.411 637.284 311.79 637.127 312.288C636.996 312.747 636.93 313.297 636.93 313.939C636.93 314.581 636.996 315.131 637.127 315.589C637.271 316.087 637.52 316.474 637.873 316.749C638.24 317.024 638.679 317.161 639.19 317.161ZM646.08 318.969C646.015 318.969 645.956 318.949 645.903 318.91C645.864 318.858 645.844 318.799 645.844 318.733V305.45C645.844 305.385 645.864 305.332 645.903 305.293C645.956 305.241 646.015 305.214 646.08 305.214H647.888C647.953 305.214 648.006 305.241 648.045 305.293C648.097 305.332 648.124 305.385 648.124 305.45V318.733C648.124 318.799 648.097 318.858 648.045 318.91C648.006 318.949 647.953 318.969 647.888 318.969H646.08ZM650.781 318.969C650.716 318.969 650.657 318.949 650.605 318.91C650.565 318.858 650.546 318.799 650.546 318.733V305.45C650.546 305.385 650.565 305.332 650.605 305.293C650.657 305.241 650.716 305.214 650.781 305.214H652.589C652.655 305.214 652.707 305.241 652.746 305.293C652.799 305.332 652.825 305.385 652.825 305.45V318.733C652.825 318.799 652.799 318.858 652.746 318.91C652.707 318.949 652.655 318.969 652.589 318.969H650.781ZM663.716 312.819C663.768 313.146 663.794 313.513 663.794 313.919L663.775 314.528C663.775 314.686 663.696 314.764 663.539 314.764H657.389C657.323 314.764 657.29 314.797 657.29 314.862C657.33 315.295 657.389 315.589 657.467 315.747C657.782 316.69 658.548 317.168 659.766 317.181C660.657 317.181 661.364 316.814 661.888 316.081C661.941 316.002 662.006 315.963 662.085 315.963C662.137 315.963 662.183 315.982 662.222 316.022L663.441 317.024C663.559 317.116 663.578 317.22 663.5 317.338C663.094 317.915 662.55 318.36 661.869 318.674C661.201 318.989 660.454 319.146 659.629 319.146C658.607 319.146 657.736 318.917 657.015 318.458C656.308 318 655.791 317.358 655.463 316.533C655.162 315.825 655.011 314.843 655.011 313.585C655.011 312.825 655.09 312.21 655.247 311.738C655.509 310.821 656 310.101 656.721 309.577C657.454 309.04 658.332 308.771 659.354 308.771C661.934 308.771 663.388 310.12 663.716 312.819ZM659.354 310.736C658.869 310.736 658.463 310.86 658.135 311.109C657.821 311.345 657.598 311.679 657.467 312.111C657.389 312.334 657.336 312.622 657.31 312.976C657.284 313.042 657.31 313.074 657.389 313.074H661.378C661.443 313.074 661.476 313.042 661.476 312.976C661.45 312.649 661.41 312.4 661.358 312.229C661.24 311.758 661.004 311.391 660.651 311.129C660.31 310.867 659.878 310.736 659.354 310.736ZM670.063 319.126C669.054 319.126 668.183 318.871 667.45 318.36C666.716 317.836 666.205 317.135 665.917 316.257C665.707 315.668 665.602 314.882 665.602 313.9C665.602 312.956 665.707 312.183 665.917 311.581C666.192 310.716 666.696 310.035 667.43 309.537C668.177 309.026 669.054 308.771 670.063 308.771C671.085 308.771 671.975 309.026 672.735 309.537C673.495 310.048 673.999 310.69 674.248 311.463C674.314 311.673 674.36 311.882 674.386 312.092V312.131C674.386 312.262 674.314 312.341 674.17 312.367L672.401 312.622H672.362C672.244 312.622 672.165 312.557 672.126 312.426C672.126 312.36 672.12 312.308 672.106 312.269C672.08 312.164 672.054 312.072 672.028 311.994C671.91 311.627 671.674 311.325 671.321 311.09C670.967 310.854 670.548 310.736 670.063 310.736C669.565 310.736 669.139 310.867 668.786 311.129C668.445 311.378 668.216 311.725 668.098 312.17C667.967 312.59 667.901 313.173 667.901 313.919C667.901 314.64 667.96 315.223 668.078 315.668C668.209 316.126 668.445 316.493 668.786 316.768C669.126 317.03 669.552 317.161 670.063 317.161C670.561 317.161 670.986 317.037 671.34 316.788C671.707 316.526 671.943 316.179 672.048 315.747C672.061 315.72 672.067 315.688 672.067 315.648C672.08 315.635 672.087 315.616 672.087 315.589C672.126 315.432 672.218 315.367 672.362 315.393L674.13 315.668C674.196 315.681 674.248 315.714 674.288 315.766C674.34 315.806 674.36 315.864 674.347 315.943C674.307 316.153 674.274 316.303 674.248 316.395C673.999 317.233 673.495 317.901 672.735 318.399C671.975 318.884 671.085 319.126 670.063 319.126ZM681.641 310.539C681.641 310.605 681.615 310.664 681.563 310.716C681.524 310.756 681.471 310.775 681.406 310.775H679.401C679.336 310.775 679.303 310.808 679.303 310.874V315.609C679.303 316.107 679.408 316.467 679.618 316.69C679.84 316.912 680.187 317.024 680.659 317.024H681.248C681.314 317.024 681.366 317.05 681.406 317.102C681.458 317.142 681.484 317.194 681.484 317.26V318.733C681.484 318.877 681.406 318.963 681.248 318.989L680.227 319.008C679.192 319.008 678.419 318.832 677.908 318.478C677.397 318.124 677.135 317.456 677.122 316.474V310.874C677.122 310.808 677.089 310.775 677.024 310.775H675.904C675.838 310.775 675.779 310.756 675.727 310.716C675.688 310.664 675.668 310.605 675.668 310.539V309.164C675.668 309.099 675.688 309.046 675.727 309.007C675.779 308.954 675.838 308.928 675.904 308.928H677.024C677.089 308.928 677.122 308.895 677.122 308.83V306.531C677.122 306.465 677.142 306.413 677.181 306.374C677.233 306.321 677.292 306.295 677.358 306.295H679.067C679.133 306.295 679.185 306.321 679.225 306.374C679.277 306.413 679.303 306.465 679.303 306.531V308.83C679.303 308.895 679.336 308.928 679.401 308.928H681.406C681.471 308.928 681.524 308.954 681.563 309.007C681.615 309.046 681.641 309.099 681.641 309.164V310.539Z" fill="#222222"/>
<rect x="601.154" y="135.475" width="194.634" height="154.223" fill="#7AEFB2"/>
<rect x="636.839" y="165.831" width="123.907" height="92.1602" fill="white" stroke="#222222" stroke-width="1.64944"/>
<rect x="631.669" y="158.568" width="12.016" height="14.2319" fill="#222222"/>
<rect x="631.669" y="251.55" width="12.016" height="14.2319" fill="#222222"/>
<rect x="755.585" y="251.55" width="10.514" height="14.2319" fill="#222222"/>
<rect x="755.585" y="158.568" width="10.514" height="14.2319" fill="#222222"/>
<rect x="655.586" y="184.134" width="79.9979" height="9.07193" fill="#7AEFB2"/>
<rect x="655.586" y="199.804" width="37.9371" height="9.07193" fill="#7AEFB2"/>
<rect x="697.647" y="199.804" width="37.9371" height="9.07193" fill="#7AEFB2"/>
<rect x="697.647" y="215.473" width="37.9371" height="9.07193" fill="#D6D6D6"/>
<rect x="655.586" y="231.143" width="37.9371" height="9.07193" fill="#D6D6D6"/>
<rect x="655.586" y="215.473" width="37.9371" height="9.07193" fill="#7AEFB2"/>
<path d="M712.493 216.298V237.34L716.729 233.226L719.693 240.243L724.428 238.225L721.668 231.563H727.721L712.493 216.298Z" fill="#222222"/>
<path d="M713.807 234.161V219.461L724.536 230.211H719.683L722.677 237.331L720.255 238.348L717.142 230.941L713.809 234.159L713.807 234.161Z" fill="#222222"/>
</g>
</g>
<defs>
<filter id="filter0_d_1294_50937" x="722.33" y="408.119" width="203.367" height="211.614" filterUnits="userSpaceOnUse" color-interpolation-filters="sRGB">
<feFlood flood-opacity="0" result="BackgroundImageFix"/>
<feColorMatrix in="SourceAlpha" type="matrix" values="0 0 0 0 0 0 0 0 0 0 0 0 0 0 0 0 0 0 127 0" result="hardAlpha"/>
<feOffset dy="4.36656"/>
<feGaussianBlur stdDeviation="2.18328"/>
<feColorMatrix type="matrix" values="0 0 0 0 0.133333 0 0 0 0 0.133333 0 0 0 0 0.133333 0 0 0 0.05 0"/>
<feBlend mode="normal" in2="BackgroundImageFix" result="effect1_dropShadow_1294_50937"/>
<feBlend mode="normal" in="SourceGraphic" in2="effect1_dropShadow_1294_50937" result="shape"/>
</filter>
<filter id="filter1_d_1294_50937" x="955.405" y="408.385" width="203.578" height="211.348" filterUnits="userSpaceOnUse" color-interpolation-filters="sRGB">
<feFlood flood-opacity="0" result="BackgroundImageFix"/>
<feColorMatrix in="SourceAlpha" type="matrix" values="0 0 0 0 0 0 0 0 0 0 0 0 0 0 0 0 0 0 127 0" result="hardAlpha"/>
<feOffset dy="4.36656"/>
<feGaussianBlur stdDeviation="2.18328"/>
<feColorMatrix type="matrix" values="0 0 0 0 0.133333 0 0 0 0 0.133333 0 0 0 0 0.133333 0 0 0 0.05 0"/>
<feBlend mode="normal" in2="BackgroundImageFix" result="effect1_dropShadow_1294_50937"/>
<feBlend mode="normal" in="SourceGraphic" in2="effect1_dropShadow_1294_50937" result="shape"/>
</filter>
<filter id="filter2_d_1294_50937" x="490.899" y="407.294" width="204.193" height="212.439" filterUnits="userSpaceOnUse" color-interpolation-filters="sRGB">
<feFlood flood-opacity="0" result="BackgroundImageFix"/>
<feColorMatrix in="SourceAlpha" type="matrix" values="0 0 0 0 0 0 0 0 0 0 0 0 0 0 0 0 0 0 127 0" result="hardAlpha"/>
<feOffset dy="4.36656"/>
<feGaussianBlur stdDeviation="2.18328"/>
<feColorMatrix type="matrix" values="0 0 0 0 0.133333 0 0 0 0 0.133333 0 0 0 0 0.133333 0 0 0 0.05 0"/>
<feBlend mode="normal" in2="BackgroundImageFix" result="effect1_dropShadow_1294_50937"/>
<feBlend mode="normal" in="SourceGraphic" in2="effect1_dropShadow_1294_50937" result="shape"/>
</filter>
<filter id="filter3_d_1294_50937" x="847.867" y="137.125" width="204.192" height="212.439" filterUnits="userSpaceOnUse" color-interpolation-filters="sRGB">
<feFlood flood-opacity="0" result="BackgroundImageFix"/>
<feColorMatrix in="SourceAlpha" type="matrix" values="0 0 0 0 0 0 0 0 0 0 0 0 0 0 0 0 0 0 127 0" result="hardAlpha"/>
<feOffset dy="4.36656"/>
<feGaussianBlur stdDeviation="2.18328"/>
<feColorMatrix type="matrix" values="0 0 0 0 0.133333 0 0 0 0 0.133333 0 0 0 0 0.133333 0 0 0 0.05 0"/>
<feBlend mode="normal" in2="BackgroundImageFix" result="effect1_dropShadow_1294_50937"/>
<feBlend mode="normal" in="SourceGraphic" in2="effect1_dropShadow_1294_50937" result="shape"/>
</filter>
<filter id="filter4_d_1294_50937" x="596.784" y="135.472" width="203.374" height="214.095" filterUnits="userSpaceOnUse" color-interpolation-filters="sRGB">
<feFlood flood-opacity="0" result="BackgroundImageFix"/>
<feColorMatrix in="SourceAlpha" type="matrix" values="0 0 0 0 0 0 0 0 0 0 0 0 0 0 0 0 0 0 127 0" result="hardAlpha"/>
<feOffset dy="4.36656"/>
<feGaussianBlur stdDeviation="2.185"/>
<feColorMatrix type="matrix" values="0 0 0 0 0.133333 0 0 0 0 0.133333 0 0 0 0 0.133333 0 0 0 0.05 0"/>
<feBlend mode="normal" in2="BackgroundImageFix" result="effect1_dropShadow_1294_50937"/>
<feBlend mode="normal" in="SourceGraphic" in2="effect1_dropShadow_1294_50937" result="shape"/>
</filter>
<clipPath id="clip0_1294_50937">
<rect width="1200" height="675" fill="white"/>
</clipPath>
<clipPath id="clip1_1294_50937">
<rect width="208" height="43.6129" fill="white" transform="translate(73 75)"/>
</clipPath>
</defs>
</svg>
